<?xml version="1.0" encoding="UTF-8" standalone="no"?><svg xmlns="http://www.w3.org/2000/svg" xmlns:xlink="http://www.w3.org/1999/xlink" contentStyleType="text/css" height="215px" preserveAspectRatio="none" style="width:425px;height:215px;background:#FFFFFF;" version="1.1" viewBox="0 0 425 215" width="425px" zoomAndPan="magnify"><defs/><g><!--MD5=[8b60166c765e9dfc5d488a49c3952d3f]
class CardTable--><g id="elem_CardTable"><rect codeLine="1" fill="#F1F1F1" height="194.6719" id="CardTable" rx="2.5" ry="2.5" style="stroke:#181818;stroke-width:0.5;" width="404" x="7" y="7"/><ellipse cx="168.25" cy="23" fill="#ADD1B2" rx="11" ry="11" style="stroke:#181818;stroke-width:1.0;"/><path d="M170.5938,18.6719 C169.6563,18.2344 169.0625,18.0938 168.1875,18.0938 C165.5625,18.0938 163.5625,20.1719 163.5625,22.8906 L163.5625,24.0156 C163.5625,26.5938 165.6719,28.4844 168.5625,28.4844 C169.7813,28.4844 170.9375,28.1875 171.6875,27.6406 C172.2656,27.2344 172.5938,26.7813 172.5938,26.3906 C172.5938,25.9375 172.2031,25.5469 171.7344,25.5469 C171.5156,25.5469 171.3125,25.625 171.125,25.8125 C170.6719,26.2969 170.6719,26.2969 170.4844,26.3906 C170.0625,26.6563 169.375,26.7813 168.6094,26.7813 C166.5625,26.7813 165.2656,25.6875 165.2656,23.9844 L165.2656,22.8906 C165.2656,21.1094 166.5156,19.7969 168.25,19.7969 C168.8281,19.7969 169.4375,19.9531 169.9063,20.2031 C170.3906,20.4844 170.5625,20.7031 170.6563,21.1094 C170.7188,21.5156 170.75,21.6406 170.8906,21.7656 C171.0313,21.9063 171.2656,22.0156 171.4844,22.0156 C171.75,22.0156 172.0156,21.875 172.1875,21.6563 C172.2969,21.5 172.3281,21.3125 172.3281,20.8906 L172.3281,19.4688 C172.3281,19.0313 172.3125,18.9063 172.2188,18.75 C172.0625,18.4844 171.7813,18.3438 171.4844,18.3438 C171.1875,18.3438 170.9844,18.4375 170.7656,18.75 L170.5938,18.6719 Z " fill="#000000"/><text fill="#000000" font-family="sans-serif" font-size="14" lengthAdjust="spacing" textLength="73" x="188.75" y="27.8467">CardTable</text><line style="stroke:#181818;stroke-width:0.5;" x1="8" x2="410" y1="39" y2="39"/><rect fill="none" height="6" style="stroke:#C82930;stroke-width:1.0;" width="6" x="15" y="47"/><text fill="#000000" font-family="sans-serif" font-size="14" lengthAdjust="spacing" textLength="102" x="27" y="55.9951">dealer : Player</text><rect fill="none" height="6" style="stroke:#C82930;stroke-width:1.0;" width="6" x="15" y="63.2969"/><text fill="#000000" font-family="sans-serif" font-size="14" lengthAdjust="spacing" textLength="85" x="27" y="72.292">deck : Deck</text><rect fill="none" height="6" style="stroke:#C82930;stroke-width:1.0;" width="6" x="15" y="79.5938"/><text fill="#000000" font-family="sans-serif" font-size="14" lengthAdjust="spacing" textLength="184" x="27" y="88.5889">discardPile : PalyingCard[]</text><rect fill="none" height="6" style="stroke:#C82930;stroke-width:1.0;" width="6" x="15" y="95.8906"/><text fill="#000000" font-family="sans-serif" font-size="14" lengthAdjust="spacing" textLength="119" x="27" y="104.8857">players : Player[]</text><line style="stroke:#181818;stroke-width:0.5;" x1="8" x2="410" y1="112.1875" y2="112.1875"/><ellipse cx="18" cy="123.1875" fill="#84BE84" rx="3" ry="3" style="stroke:#038048;stroke-width:1.0;"/><text fill="#000000" font-family="sans-serif" font-size="14" lengthAdjust="spacing" textLength="283" x="27" y="129.1826">constructor(numberOfPlayers: number)</text><rect fill="#F24D5C" height="6" style="stroke:#C82930;stroke-width:1.0;" width="6" x="15" y="136.4844"/><text fill="#000000" font-family="sans-serif" font-size="14" lengthAdjust="spacing" textLength="378" x="27" y="145.4795">compareHands(dealer: Player, player: Player) : Player</text><rect fill="#F24D5C" height="6" style="stroke:#C82930;stroke-width:1.0;" width="6" x="15" y="152.7813"/><text fill="#000000" font-family="sans-serif" font-size="14" lengthAdjust="spacing" textLength="137" x="27" y="161.7764">deal() : PlayingCard</text><rect fill="#F24D5C" height="6" style="stroke:#C82930;stroke-width:1.0;" width="6" x="15" y="169.0781"/><text fill="#000000" font-family="sans-serif" font-size="14" lengthAdjust="spacing" textLength="270" x="27" y="178.0732">playOut(dealer: Player, player: Player)</text><ellipse cx="18" cy="188.375" fill="#84BE84" rx="3" ry="3" style="stroke:#038048;stroke-width:1.0;"/><text fill="#000000" font-family="sans-serif" font-size="14" lengthAdjust="spacing" textLength="286" x="27" y="194.3701">playRounds(numberOfRounds : number)</text></g><!--MD5=[6e694c601fa86b4cc77b9561a171ae6c]
@startuml
class CardTable{
    -dealer : Player
    -deck : Deck
    -discardPile : PalyingCard[]
    -players : Player[]
    +constructor(numberOfPlayers: number)
    -compareHands(dealer: Player, player: Player) : Player
    -deal() : PlayingCard
    -playOut(dealer: Player, player: Player)
    +playRounds(numberOfRounds : number)
  }
@enduml

PlantUML version 1.2022.6beta4(Unknown compile time)
(GPL source distribution)
Java Runtime: Java(TM) SE Runtime Environment
JVM: Java HotSpot(TM) 64-Bit Server VM
Default Encoding: UTF-8
Language: en
Country: US
--></g></svg>