<?xml version="1.0" encoding="UTF-8" standalone="no"?><svg xmlns="http://www.w3.org/2000/svg" xmlns:xlink="http://www.w3.org/1999/xlink" contentStyleType="text/css" height="280px" preserveAspectRatio="none" style="width:648px;height:280px;background:#FFFFFF;" version="1.1" viewBox="0 0 648 280" width="648px" zoomAndPan="magnify"><defs/><g><!--MD5=[2cb47ba637a0d19583e6199456f6ad0b]
class Player--><g id="elem_Player"><rect codeLine="1" fill="#F1F1F1" height="259.8594" id="Player" rx="2.5" ry="2.5" style="stroke:#181818;stroke-width:0.5;" width="627" x="7" y="7"/><ellipse cx="294.25" cy="23" fill="#ADD1B2" rx="11" ry="11" style="stroke:#181818;stroke-width:1.0;"/><path d="M296.5938,18.6719 C295.6563,18.2344 295.0625,18.0938 294.1875,18.0938 C291.5625,18.0938 289.5625,20.1719 289.5625,22.8906 L289.5625,24.0156 C289.5625,26.5938 291.6719,28.4844 294.5625,28.4844 C295.7813,28.4844 296.9375,28.1875 297.6875,27.6406 C298.2656,27.2344 298.5938,26.7813 298.5938,26.3906 C298.5938,25.9375 298.2031,25.5469 297.7344,25.5469 C297.5156,25.5469 297.3125,25.625 297.125,25.8125 C296.6719,26.2969 296.6719,26.2969 296.4844,26.3906 C296.0625,26.6563 295.375,26.7813 294.6094,26.7813 C292.5625,26.7813 291.2656,25.6875 291.2656,23.9844 L291.2656,22.8906 C291.2656,21.1094 292.5156,19.7969 294.25,19.7969 C294.8281,19.7969 295.4375,19.9531 295.9063,20.2031 C296.3906,20.4844 296.5625,20.7031 296.6563,21.1094 C296.7188,21.5156 296.75,21.6406 296.8906,21.7656 C297.0313,21.9063 297.2656,22.0156 297.4844,22.0156 C297.75,22.0156 298.0156,21.875 298.1875,21.6563 C298.2969,21.5 298.3281,21.3125 298.3281,20.8906 L298.3281,19.4688 C298.3281,19.0313 298.3125,18.9063 298.2188,18.75 C298.0625,18.4844 297.7813,18.3438 297.4844,18.3438 C297.1875,18.3438 296.9844,18.4375 296.7656,18.75 L296.5938,18.6719 Z " fill="#000000"/><text fill="#000000" font-family="sans-serif" font-size="14" lengthAdjust="spacing" textLength="44" x="314.75" y="27.8467">Player</text><line style="stroke:#181818;stroke-width:0.5;" x1="8" x2="633" y1="39" y2="39"/><rect fill="none" height="6" style="stroke:#C82930;stroke-width:1.0;" width="6" x="15" y="47"/><text fill="#000000" font-family="sans-serif" font-size="14" lengthAdjust="spacing" textLength="84" x="27" y="55.9951">hand : Hand</text><rect fill="none" height="6" style="stroke:#C82930;stroke-width:1.0;" width="6" x="15" y="63.2969"/><text fill="#000000" font-family="sans-serif" font-size="14" lengthAdjust="spacing" textLength="125" x="27" y="72.292">nickname : string</text><rect fill="none" height="6" style="stroke:#C82930;stroke-width:1.0;" width="6" x="15" y="79.5938"/><text fill="#000000" font-family="sans-serif" font-size="14" lengthAdjust="spacing" textLength="148" x="27" y="88.5889">standValue : number</text><ellipse cx="18" cy="98.8906" fill="none" rx="3" ry="3" style="stroke:#038048;stroke-width:1.0;"/><text fill="#000000" font-family="sans-serif" font-size="14" lengthAdjust="spacing" textLength="162" x="27" y="104.8857">«get» canHit : boolean</text><ellipse cx="18" cy="115.1875" fill="none" rx="3" ry="3" style="stroke:#038048;stroke-width:1.0;"/><text fill="#000000" font-family="sans-serif" font-size="14" lengthAdjust="spacing" textLength="177" x="27" y="121.1826">«get» isBusted : boolean</text><ellipse cx="18" cy="131.4844" fill="none" rx="3" ry="3" style="stroke:#038048;stroke-width:1.0;"/><text fill="#000000" font-family="sans-serif" font-size="14" lengthAdjust="spacing" textLength="229" x="27" y="137.4795">«get» isNaturalWinner : boolean</text><ellipse cx="18" cy="147.7813" fill="none" rx="3" ry="3" style="stroke:#038048;stroke-width:1.0;"/><text fill="#000000" font-family="sans-serif" font-size="14" lengthAdjust="spacing" textLength="170" x="27" y="153.7764">«get» nickname : string</text><line style="stroke:#181818;stroke-width:0.5;" x1="8" x2="633" y1="161.0781" y2="161.0781"/><ellipse cx="18" cy="172.0781" fill="#84BE84" rx="3" ry="3" style="stroke:#038048;stroke-width:1.0;"/><text fill="#000000" font-family="sans-serif" font-size="14" lengthAdjust="spacing" textLength="601" x="27" y="178.0732">constructor(nickname : string, standValue : number = 14, hand : Hand = new Hand())</text><ellipse cx="18" cy="188.375" fill="#84BE84" rx="3" ry="3" style="stroke:#038048;stroke-width:1.0;"/><text fill="#000000" font-family="sans-serif" font-size="14" lengthAdjust="spacing" textLength="272" x="27" y="194.3701">addToHand(playingCard : PlayingCard)</text><ellipse cx="18" cy="204.6719" fill="#84BE84" rx="3" ry="3" style="stroke:#038048;stroke-width:1.0;"/><text fill="#000000" font-family="sans-serif" font-size="14" lengthAdjust="spacing" textLength="102" x="27" y="210.667">copy() : Player</text><ellipse cx="18" cy="220.9688" fill="#84BE84" rx="3" ry="3" style="stroke:#038048;stroke-width:1.0;"/><text fill="#000000" font-family="sans-serif" font-size="14" lengthAdjust="spacing" textLength="204" x="27" y="226.9639">discardHand() : PlayingCard[]</text><ellipse cx="18" cy="237.2656" fill="#84BE84" rx="3" ry="3" style="stroke:#038048;stroke-width:1.0;"/><text fill="#000000" font-family="sans-serif" font-size="14" lengthAdjust="spacing" textLength="125" x="27" y="243.2607">toString() : string</text><ellipse cx="18" cy="253.5625" fill="#84BE84" rx="3" ry="3" style="stroke:#038048;stroke-width:1.0;"/><text fill="#000000" font-family="sans-serif" font-size="14" lengthAdjust="spacing" textLength="133" x="27" y="259.5576">valueOf() : number</text></g><!--MD5=[17a10d8748483880b1c1522ec6186ff6]
@startuml
class Player{
      -hand : Hand
      -nickname : string
      -standValue : number
      +«get» canHit : boolean
      +«get» isBusted : boolean
      +«get» isNaturalWinner : boolean
      +«get» nickname : string
      +constructor(nickname : string, standValue : number = 14, hand : Hand = new Hand())
      +addToHand(playingCard : PlayingCard)
      +copy() : Player
      +discardHand() : PlayingCard[]
      +toString() : string
      +valueOf() : number
  }
@enduml

PlantUML version 1.2022.6beta5(Unknown compile time)
(GPL source distribution)
Java Runtime: Java(TM) SE Runtime Environment
JVM: Java HotSpot(TM) 64-Bit Server VM
Default Encoding: UTF-8
Language: en
Country: US
--></g></svg>