<?xml version="1.0" encoding="UTF-8" standalone="no"?><svg xmlns="http://www.w3.org/2000/svg" xmlns:xlink="http://www.w3.org/1999/xlink" contentStyleType="text/css" height="1301px" preserveAspectRatio="none" style="width:891px;height:1301px;background:#FFFFFF;" version="1.1" viewBox="0 0 891 1301" width="891px" zoomAndPan="magnify"><defs/><g><!--MD5=[8b60166c765e9dfc5d488a49c3952d3f]
class CardTable--><g id="elem_CardTable"><rect codeLine="10" fill="#F1F1F1" height="129.4844" id="CardTable" rx="2.5" ry="2.5" style="stroke:#181818;stroke-width:0.5;" width="412" x="409.5" y="7"/><ellipse cx="574.75" cy="23" fill="#ADD1B2" rx="11" ry="11" style="stroke:#181818;stroke-width:1.0;"/><path d="M577.0938,18.6719 C576.1563,18.2344 575.5625,18.0938 574.6875,18.0938 C572.0625,18.0938 570.0625,20.1719 570.0625,22.8906 L570.0625,24.0156 C570.0625,26.5938 572.1719,28.4844 575.0625,28.4844 C576.2813,28.4844 577.4375,28.1875 578.1875,27.6406 C578.7656,27.2344 579.0938,26.7813 579.0938,26.3906 C579.0938,25.9375 578.7031,25.5469 578.2344,25.5469 C578.0156,25.5469 577.8125,25.625 577.625,25.8125 C577.1719,26.2969 577.1719,26.2969 576.9844,26.3906 C576.5625,26.6563 575.875,26.7813 575.1094,26.7813 C573.0625,26.7813 571.7656,25.6875 571.7656,23.9844 L571.7656,22.8906 C571.7656,21.1094 573.0156,19.7969 574.75,19.7969 C575.3281,19.7969 575.9375,19.9531 576.4063,20.2031 C576.8906,20.4844 577.0625,20.7031 577.1563,21.1094 C577.2188,21.5156 577.25,21.6406 577.3906,21.7656 C577.5313,21.9063 577.7656,22.0156 577.9844,22.0156 C578.25,22.0156 578.5156,21.875 578.6875,21.6563 C578.7969,21.5 578.8281,21.3125 578.8281,20.8906 L578.8281,19.4688 C578.8281,19.0313 578.8125,18.9063 578.7188,18.75 C578.5625,18.4844 578.2813,18.3438 577.9844,18.3438 C577.6875,18.3438 577.4844,18.4375 577.2656,18.75 L577.0938,18.6719 Z " fill="#000000"/><text fill="#000000" font-family="sans-serif" font-size="14" lengthAdjust="spacing" textLength="73" x="595.25" y="27.8467">CardTable</text><line style="stroke:#181818;stroke-width:0.5;" x1="410.5" x2="820.5" y1="39" y2="39"/><line style="stroke:#181818;stroke-width:0.5;" x1="410.5" x2="820.5" y1="47" y2="47"/><ellipse cx="420.5" cy="60.6484" fill="#84BE84" rx="3" ry="3" style="stroke:#038048;stroke-width:1.0;"/><text fill="#000000" font-family="sans-serif" font-size="14" lengthAdjust="spacing" textLength="287" x="429.5" y="63.9951">constructor(numberOfPlayers : number)</text><rect fill="#F24D5C" height="6" style="stroke:#C82930;stroke-width:1.0;" width="6" x="417.5" y="73.9453"/><text fill="#000000" font-family="sans-serif" font-size="14" lengthAdjust="spacing" textLength="386" x="429.5" y="80.292">compareHands(dealer : Player, player : Player) : Player</text><rect fill="#F24D5C" height="6" style="stroke:#C82930;stroke-width:1.0;" width="6" x="417.5" y="90.2422"/><text fill="#000000" font-family="sans-serif" font-size="14" lengthAdjust="spacing" textLength="137" x="429.5" y="96.5889">deal() : PalyingCard</text><rect fill="#F24D5C" height="6" style="stroke:#C82930;stroke-width:1.0;" width="6" x="417.5" y="106.5391"/><text fill="#000000" font-family="sans-serif" font-size="14" lengthAdjust="spacing" textLength="278" x="429.5" y="112.8857">playOut(dealer : Player, player : Player)</text><ellipse cx="420.5" cy="125.8359" fill="#84BE84" rx="3" ry="3" style="stroke:#038048;stroke-width:1.0;"/><text fill="#000000" font-family="sans-serif" font-size="14" lengthAdjust="spacing" textLength="356" x="429.5" y="129.1826">playRounds(numberOfRounds : number) : object[]</text></g><!--MD5=[2cb47ba637a0d19583e6199456f6ad0b]
class Player--><g id="elem_Player"><rect codeLine="34" fill="#F1F1F1" height="243.5625" id="Player" rx="2.5" ry="2.5" style="stroke:#181818;stroke-width:0.5;" width="627" x="7" y="213"/><ellipse cx="294.25" cy="229" fill="#ADD1B2" rx="11" ry="11" style="stroke:#181818;stroke-width:1.0;"/><path d="M296.5938,224.6719 C295.6563,224.2344 295.0625,224.0938 294.1875,224.0938 C291.5625,224.0938 289.5625,226.1719 289.5625,228.8906 L289.5625,230.0156 C289.5625,232.5938 291.6719,234.4844 294.5625,234.4844 C295.7813,234.4844 296.9375,234.1875 297.6875,233.6406 C298.2656,233.2344 298.5938,232.7813 298.5938,232.3906 C298.5938,231.9375 298.2031,231.5469 297.7344,231.5469 C297.5156,231.5469 297.3125,231.625 297.125,231.8125 C296.6719,232.2969 296.6719,232.2969 296.4844,232.3906 C296.0625,232.6563 295.375,232.7813 294.6094,232.7813 C292.5625,232.7813 291.2656,231.6875 291.2656,229.9844 L291.2656,228.8906 C291.2656,227.1094 292.5156,225.7969 294.25,225.7969 C294.8281,225.7969 295.4375,225.9531 295.9063,226.2031 C296.3906,226.4844 296.5625,226.7031 296.6563,227.1094 C296.7188,227.5156 296.75,227.6406 296.8906,227.7656 C297.0313,227.9063 297.2656,228.0156 297.4844,228.0156 C297.75,228.0156 298.0156,227.875 298.1875,227.6563 C298.2969,227.5 298.3281,227.3125 298.3281,226.8906 L298.3281,225.4688 C298.3281,225.0313 298.3125,224.9063 298.2188,224.75 C298.0625,224.4844 297.7813,224.3438 297.4844,224.3438 C297.1875,224.3438 296.9844,224.4375 296.7656,224.75 L296.5938,224.6719 Z " fill="#000000"/><text fill="#000000" font-family="sans-serif" font-size="14" lengthAdjust="spacing" textLength="44" x="314.75" y="233.8467">Player</text><line style="stroke:#181818;stroke-width:0.5;" x1="8" x2="633" y1="245" y2="245"/><rect fill="none" height="6" style="stroke:#C82930;stroke-width:1.0;" width="6" x="15" y="255.6484"/><text fill="#000000" font-family="sans-serif" font-size="14" lengthAdjust="spacing" textLength="125" x="27" y="261.9951">nickname : string</text><rect fill="none" height="6" style="stroke:#C82930;stroke-width:1.0;" width="6" x="15" y="271.9453"/><text fill="#000000" font-family="sans-serif" font-size="14" lengthAdjust="spacing" textLength="148" x="27" y="278.292">standValue : number</text><ellipse cx="18" cy="291.2422" fill="none" rx="3" ry="3" style="stroke:#038048;stroke-width:1.0;"/><text fill="#000000" font-family="sans-serif" font-size="14" lengthAdjust="spacing" textLength="162" x="27" y="294.5889">«get» canHit : boolean</text><ellipse cx="18" cy="307.5391" fill="none" rx="3" ry="3" style="stroke:#038048;stroke-width:1.0;"/><text fill="#000000" font-family="sans-serif" font-size="14" lengthAdjust="spacing" textLength="177" x="27" y="310.8857">«get» isBusted : boolean</text><ellipse cx="18" cy="323.8359" fill="none" rx="3" ry="3" style="stroke:#038048;stroke-width:1.0;"/><text fill="#000000" font-family="sans-serif" font-size="14" lengthAdjust="spacing" textLength="229" x="27" y="327.1826">«get» isNaturalWinner : boolean</text><ellipse cx="18" cy="340.1328" fill="none" rx="3" ry="3" style="stroke:#038048;stroke-width:1.0;"/><text fill="#000000" font-family="sans-serif" font-size="14" lengthAdjust="spacing" textLength="170" x="27" y="343.4795">«get» nickname : string</text><line style="stroke:#181818;stroke-width:0.5;" x1="8" x2="633" y1="350.7813" y2="350.7813"/><ellipse cx="18" cy="364.4297" fill="#84BE84" rx="3" ry="3" style="stroke:#038048;stroke-width:1.0;"/><text fill="#000000" font-family="sans-serif" font-size="14" lengthAdjust="spacing" textLength="601" x="27" y="367.7764">constructor(nickname : string, standValue : number = 14, hand : Hand = new Hand())</text><ellipse cx="18" cy="380.7266" fill="#84BE84" rx="3" ry="3" style="stroke:#038048;stroke-width:1.0;"/><text fill="#000000" font-family="sans-serif" font-size="14" lengthAdjust="spacing" textLength="272" x="27" y="384.0732">addToHand(playingCard : PlayingCard)</text><ellipse cx="18" cy="397.0234" fill="#84BE84" rx="3" ry="3" style="stroke:#038048;stroke-width:1.0;"/><text fill="#000000" font-family="sans-serif" font-size="14" lengthAdjust="spacing" textLength="102" x="27" y="400.3701">copy() : Player</text><ellipse cx="18" cy="413.3203" fill="#84BE84" rx="3" ry="3" style="stroke:#038048;stroke-width:1.0;"/><text fill="#000000" font-family="sans-serif" font-size="14" lengthAdjust="spacing" textLength="204" x="27" y="416.667">discardHand() : PlayingCard[]</text><ellipse cx="18" cy="429.6172" fill="#84BE84" rx="3" ry="3" style="stroke:#038048;stroke-width:1.0;"/><text fill="#000000" font-family="sans-serif" font-size="14" lengthAdjust="spacing" textLength="125" x="27" y="432.9639">toString() : string</text><ellipse cx="18" cy="445.9141" fill="#84BE84" rx="3" ry="3" style="stroke:#038048;stroke-width:1.0;"/><text fill="#000000" font-family="sans-serif" font-size="14" lengthAdjust="spacing" textLength="133" x="27" y="449.2607">valueOf() : number</text></g><!--MD5=[30299a58ba6b78debaaed5ddbb42f29a]
class Deck--><g id="elem_Deck"><rect codeLine="18" fill="#F1F1F1" height="129.4844" id="Deck" rx="2.5" ry="2.5" style="stroke:#181818;stroke-width:0.5;" width="257" x="454" y="487"/><ellipse cx="559.75" cy="503" fill="#ADD1B2" rx="11" ry="11" style="stroke:#181818;stroke-width:1.0;"/><path d="M562.0938,498.6719 C561.1563,498.2344 560.5625,498.0938 559.6875,498.0938 C557.0625,498.0938 555.0625,500.1719 555.0625,502.8906 L555.0625,504.0156 C555.0625,506.5938 557.1719,508.4844 560.0625,508.4844 C561.2813,508.4844 562.4375,508.1875 563.1875,507.6406 C563.7656,507.2344 564.0938,506.7813 564.0938,506.3906 C564.0938,505.9375 563.7031,505.5469 563.2344,505.5469 C563.0156,505.5469 562.8125,505.625 562.625,505.8125 C562.1719,506.2969 562.1719,506.2969 561.9844,506.3906 C561.5625,506.6563 560.875,506.7813 560.1094,506.7813 C558.0625,506.7813 556.7656,505.6875 556.7656,503.9844 L556.7656,502.8906 C556.7656,501.1094 558.0156,499.7969 559.75,499.7969 C560.3281,499.7969 560.9375,499.9531 561.4063,500.2031 C561.8906,500.4844 562.0625,500.7031 562.1563,501.1094 C562.2188,501.5156 562.25,501.6406 562.3906,501.7656 C562.5313,501.9063 562.7656,502.0156 562.9844,502.0156 C563.25,502.0156 563.5156,501.875 563.6875,501.6563 C563.7969,501.5 563.8281,501.3125 563.8281,500.8906 L563.8281,499.4688 C563.8281,499.0313 563.8125,498.9063 563.7188,498.75 C563.5625,498.4844 563.2813,498.3438 562.9844,498.3438 C562.6875,498.3438 562.4844,498.4375 562.2656,498.75 L562.0938,498.6719 Z " fill="#000000"/><text fill="#000000" font-family="sans-serif" font-size="14" lengthAdjust="spacing" textLength="37" x="580.25" y="507.8467">Deck</text><line style="stroke:#181818;stroke-width:0.5;" x1="455" x2="710" y1="519" y2="519"/><ellipse cx="465" cy="532.6484" fill="none" rx="3" ry="3" style="stroke:#038048;stroke-width:1.0;"/><text fill="#000000" font-family="sans-serif" font-size="14" lengthAdjust="spacing" textLength="155" x="474" y="535.9951">«get» count : number</text><line style="stroke:#181818;stroke-width:0.5;" x1="455" x2="710" y1="543.2969" y2="543.2969"/><ellipse cx="465" cy="556.9453" fill="#84BE84" rx="3" ry="3" style="stroke:#038048;stroke-width:1.0;"/><text fill="#000000" font-family="sans-serif" font-size="14" lengthAdjust="spacing" textLength="94" x="474" y="560.292">constructor()</text><ellipse cx="465" cy="573.2422" fill="#84BE84" rx="3" ry="3" style="stroke:#038048;stroke-width:1.0;"/><text fill="#000000" font-family="sans-serif" font-size="14" lengthAdjust="spacing" textLength="231" x="474" y="576.5889">add(playingCards: PlayingCard[])</text><ellipse cx="465" cy="589.5391" fill="#84BE84" rx="3" ry="3" style="stroke:#038048;stroke-width:1.0;"/><text fill="#000000" font-family="sans-serif" font-size="14" lengthAdjust="spacing" textLength="137" x="474" y="592.8857">deal() : PlayingCard</text><ellipse cx="465" cy="605.8359" fill="#84BE84" rx="3" ry="3" style="stroke:#038048;stroke-width:1.0;"/><text fill="#000000" font-family="sans-serif" font-size="14" lengthAdjust="spacing" textLength="59" x="474" y="609.1826">shuffle()</text></g><!--MD5=[e2149c685ad626b88c35680638ab78eb]
class PlayingCardCollection--><g id="elem_PlayingCardCollection"><rect codeLine="59" fill="#F1F1F1" height="210.9688" id="PlayingCardCollection" rx="2.5" ry="2.5" style="stroke:#181818;stroke-width:0.5;" width="469" x="330" y="836"/><ellipse cx="481.75" cy="852" fill="#ADD1B2" rx="11" ry="11" style="stroke:#181818;stroke-width:1.0;"/><path d="M484.0938,847.6719 C483.1563,847.2344 482.5625,847.0938 481.6875,847.0938 C479.0625,847.0938 477.0625,849.1719 477.0625,851.8906 L477.0625,853.0156 C477.0625,855.5938 479.1719,857.4844 482.0625,857.4844 C483.2813,857.4844 484.4375,857.1875 485.1875,856.6406 C485.7656,856.2344 486.0938,855.7813 486.0938,855.3906 C486.0938,854.9375 485.7031,854.5469 485.2344,854.5469 C485.0156,854.5469 484.8125,854.625 484.625,854.8125 C484.1719,855.2969 484.1719,855.2969 483.9844,855.3906 C483.5625,855.6563 482.875,855.7813 482.1094,855.7813 C480.0625,855.7813 478.7656,854.6875 478.7656,852.9844 L478.7656,851.8906 C478.7656,850.1094 480.0156,848.7969 481.75,848.7969 C482.3281,848.7969 482.9375,848.9531 483.4063,849.2031 C483.8906,849.4844 484.0625,849.7031 484.1563,850.1094 C484.2188,850.5156 484.25,850.6406 484.3906,850.7656 C484.5313,850.9063 484.7656,851.0156 484.9844,851.0156 C485.25,851.0156 485.5156,850.875 485.6875,850.6563 C485.7969,850.5 485.8281,850.3125 485.8281,849.8906 L485.8281,848.4688 C485.8281,848.0313 485.8125,847.9063 485.7188,847.75 C485.5625,847.4844 485.2813,847.3438 484.9844,847.3438 C484.6875,847.3438 484.4844,847.4375 484.2656,847.75 L484.0938,847.6719 Z " fill="#000000"/><text fill="#000000" font-family="sans-serif" font-size="14" lengthAdjust="spacing" textLength="157" x="502.25" y="856.8467">PlayingCardCollection</text><line style="stroke:#181818;stroke-width:0.5;" x1="331" x2="798" y1="868" y2="868"/><line style="stroke:#181818;stroke-width:0.5;" x1="331" x2="798" y1="876" y2="876"/><ellipse cx="341" cy="889.6484" fill="#84BE84" rx="3" ry="3" style="stroke:#038048;stroke-width:1.0;"/><text fill="#000000" font-family="sans-serif" font-size="14" lengthAdjust="spacing" textLength="322" x="350" y="892.9951">constructor(playingCards : PlayingCard[] = [])</text><ellipse cx="341" cy="905.9453" fill="#84BE84" rx="3" ry="3" style="stroke:#038048;stroke-width:1.0;"/><text fill="#000000" font-family="sans-serif" font-size="14" lengthAdjust="spacing" textLength="255" x="350" y="909.292">add(...playingCards : ...PlayingCard)</text><ellipse cx="341" cy="922.2422" fill="#84BE84" rx="3" ry="3" style="stroke:#038048;stroke-width:1.0;"/><text fill="#000000" font-family="sans-serif" font-size="14" lengthAdjust="spacing" textLength="215" x="350" y="925.5889">copy() : PlayingCardCollection</text><ellipse cx="341" cy="938.5391" fill="#84BE84" rx="3" ry="3" style="stroke:#038048;stroke-width:1.0;"/><text fill="#000000" font-family="sans-serif" font-size="14" lengthAdjust="spacing" textLength="300" x="350" y="941.8857">copyTo(array : Array, index : number = -1)</text><ellipse cx="341" cy="954.8359" fill="#84BE84" rx="3" ry="3" style="stroke:#038048;stroke-width:1.0;"/><text fill="#000000" font-family="sans-serif" font-size="14" lengthAdjust="spacing" textLength="190" x="350" y="958.1826">removeAll() : PlayingCard[]</text><ellipse cx="341" cy="971.1328" fill="#84BE84" rx="3" ry="3" style="stroke:#038048;stroke-width:1.0;"/><text fill="#000000" font-family="sans-serif" font-size="14" lengthAdjust="spacing" textLength="443" x="350" y="974.4795">removeAt(index : number, count : number = 1) : PlayingCard[]</text><ellipse cx="341" cy="987.4297" fill="#84BE84" rx="3" ry="3" style="stroke:#038048;stroke-width:1.0;"/><text fill="#000000" font-family="sans-serif" font-size="14" lengthAdjust="spacing" textLength="59" x="350" y="990.7764">shuffle()</text><ellipse cx="341" cy="1003.7266" fill="#84BE84" rx="3" ry="3" style="stroke:#038048;stroke-width:1.0;"/><text fill="#000000" font-family="sans-serif" font-size="14" lengthAdjust="spacing" textLength="125" x="350" y="1007.0732">toString() : string</text><ellipse cx="341" cy="1020.0234" fill="#84BE84" rx="3" ry="3" style="stroke:#038048;stroke-width:1.0;"/><text fill="#000000" font-family="sans-serif" font-size="14" lengthAdjust="spacing" textLength="133" x="350" y="1023.3701">valueOf() : number</text><ellipse cx="341" cy="1036.3203" fill="#84BE84" rx="3" ry="3" style="stroke:#038048;stroke-width:1.0;"/><text fill="#000000" font-family="sans-serif" font-size="14" lengthAdjust="spacing" textLength="239" x="350" y="1039.667">*[Symbol.iterator]() : PlayingCard</text></g><!--MD5=[b3a980551af4fb5504d75634056fd54d]
class Hand--><g id="elem_Hand"><rect codeLine="26" fill="#F1F1F1" height="129.4844" id="Hand" rx="2.5" ry="2.5" style="stroke:#181818;stroke-width:0.5;" width="348" x="146.5" y="646"/><ellipse cx="298.25" cy="662" fill="#ADD1B2" rx="11" ry="11" style="stroke:#181818;stroke-width:1.0;"/><path d="M300.5938,657.6719 C299.6563,657.2344 299.0625,657.0938 298.1875,657.0938 C295.5625,657.0938 293.5625,659.1719 293.5625,661.8906 L293.5625,663.0156 C293.5625,665.5938 295.6719,667.4844 298.5625,667.4844 C299.7813,667.4844 300.9375,667.1875 301.6875,666.6406 C302.2656,666.2344 302.5938,665.7813 302.5938,665.3906 C302.5938,664.9375 302.2031,664.5469 301.7344,664.5469 C301.5156,664.5469 301.3125,664.625 301.125,664.8125 C300.6719,665.2969 300.6719,665.2969 300.4844,665.3906 C300.0625,665.6563 299.375,665.7813 298.6094,665.7813 C296.5625,665.7813 295.2656,664.6875 295.2656,662.9844 L295.2656,661.8906 C295.2656,660.1094 296.5156,658.7969 298.25,658.7969 C298.8281,658.7969 299.4375,658.9531 299.9063,659.2031 C300.3906,659.4844 300.5625,659.7031 300.6563,660.1094 C300.7188,660.5156 300.75,660.6406 300.8906,660.7656 C301.0313,660.9063 301.2656,661.0156 301.4844,661.0156 C301.75,661.0156 302.0156,660.875 302.1875,660.6563 C302.2969,660.5 302.3281,660.3125 302.3281,659.8906 L302.3281,658.4688 C302.3281,658.0313 302.3125,657.9063 302.2188,657.75 C302.0625,657.4844 301.7813,657.3438 301.4844,657.3438 C301.1875,657.3438 300.9844,657.4375 300.7656,657.75 L300.5938,657.6719 Z " fill="#000000"/><text fill="#000000" font-family="sans-serif" font-size="14" lengthAdjust="spacing" textLength="36" x="318.75" y="666.8467">Hand</text><line style="stroke:#181818;stroke-width:0.5;" x1="147.5" x2="493.5" y1="678" y2="678"/><line style="stroke:#181818;stroke-width:0.5;" x1="147.5" x2="493.5" y1="686" y2="686"/><ellipse cx="157.5" cy="699.6484" fill="#84BE84" rx="3" ry="3" style="stroke:#038048;stroke-width:1.0;"/><text fill="#000000" font-family="sans-serif" font-size="14" lengthAdjust="spacing" textLength="322" x="166.5" y="702.9951">constructor(playingCards : PlayingCard[] = [])</text><ellipse cx="157.5" cy="715.9453" fill="#84BE84" rx="3" ry="3" style="stroke:#038048;stroke-width:1.0;"/><text fill="#000000" font-family="sans-serif" font-size="14" lengthAdjust="spacing" textLength="94" x="166.5" y="719.292">copy() : Hand</text><ellipse cx="157.5" cy="732.2422" fill="#84BE84" rx="3" ry="3" style="stroke:#038048;stroke-width:1.0;"/><text fill="#000000" font-family="sans-serif" font-size="14" lengthAdjust="spacing" textLength="186" x="166.5" y="735.5889">discardAll() : PlayingCard[]</text><ellipse cx="157.5" cy="748.5391" fill="#84BE84" rx="3" ry="3" style="stroke:#038048;stroke-width:1.0;"/><text fill="#000000" font-family="sans-serif" font-size="14" lengthAdjust="spacing" textLength="125" x="166.5" y="751.8857">toString() : string</text><ellipse cx="157.5" cy="764.8359" fill="#84BE84" rx="3" ry="3" style="stroke:#038048;stroke-width:1.0;"/><text fill="#000000" font-family="sans-serif" font-size="14" lengthAdjust="spacing" textLength="133" x="166.5" y="768.1826">valueOf() : number</text></g><!--MD5=[015579201aeb56fae2e96ff8a3148310]
class PlayingCard--><g id="elem_PlayingCard"><rect codeLine="49" fill="#F1F1F1" height="170.3438" id="PlayingCard" rx="2.5" ry="2.5" style="stroke:#181818;stroke-width:0.5;" width="310" x="409.5" y="1124"/><ellipse cx="518.25" cy="1144.1328" fill="#ADD1B2" rx="11" ry="11" style="stroke:#181818;stroke-width:1.0;"/><path d="M520.5938,1139.8047 C519.6563,1139.3672 519.0625,1139.2266 518.1875,1139.2266 C515.5625,1139.2266 513.5625,1141.3047 513.5625,1144.0234 L513.5625,1145.1484 C513.5625,1147.7266 515.6719,1149.6172 518.5625,1149.6172 C519.7813,1149.6172 520.9375,1149.3203 521.6875,1148.7734 C522.2656,1148.3672 522.5938,1147.9141 522.5938,1147.5234 C522.5938,1147.0703 522.2031,1146.6797 521.7344,1146.6797 C521.5156,1146.6797 521.3125,1146.7578 521.125,1146.9453 C520.6719,1147.4297 520.6719,1147.4297 520.4844,1147.5234 C520.0625,1147.7891 519.375,1147.9141 518.6094,1147.9141 C516.5625,1147.9141 515.2656,1146.8203 515.2656,1145.1172 L515.2656,1144.0234 C515.2656,1142.2422 516.5156,1140.9297 518.25,1140.9297 C518.8281,1140.9297 519.4375,1141.0859 519.9063,1141.3359 C520.3906,1141.6172 520.5625,1141.8359 520.6563,1142.2422 C520.7188,1142.6484 520.75,1142.7734 520.8906,1142.8984 C521.0313,1143.0391 521.2656,1143.1484 521.4844,1143.1484 C521.75,1143.1484 522.0156,1143.0078 522.1875,1142.7891 C522.2969,1142.6328 522.3281,1142.4453 522.3281,1142.0234 L522.3281,1140.6016 C522.3281,1140.1641 522.3125,1140.0391 522.2188,1139.8828 C522.0625,1139.6172 521.7813,1139.4766 521.4844,1139.4766 C521.1875,1139.4766 520.9844,1139.5703 520.7656,1139.8828 L520.5938,1139.8047 Z " fill="#000000"/><text fill="#000000" font-family="sans-serif" font-size="12" font-style="italic" lengthAdjust="spacing" textLength="79" x="541.25" y="1140.1387">«immutable»</text><text fill="#000000" font-family="sans-serif" font-size="14" lengthAdjust="spacing" textLength="84" x="538.75" y="1155.9639">PlayingCard</text><line style="stroke:#181818;stroke-width:0.5;" x1="410.5" x2="718.5" y1="1164.2656" y2="1164.2656"/><ellipse cx="420.5" cy="1177.9141" fill="none" rx="3" ry="3" style="stroke:#038048;stroke-width:1.0;"/><text fill="#000000" font-family="sans-serif" font-size="14" lengthAdjust="spacing" text-decoration="underline" textLength="118" x="429.5" y="1181.2607">ranks : number[]</text><ellipse cx="420.5" cy="1194.2109" fill="none" rx="3" ry="3" style="stroke:#038048;stroke-width:1.0;"/><text fill="#000000" font-family="sans-serif" font-size="14" lengthAdjust="spacing" text-decoration="underline" textLength="98" x="429.5" y="1197.5576">suits : string[]</text><ellipse cx="420.5" cy="1210.5078" fill="none" rx="3" ry="3" style="stroke:#038048;stroke-width:1.0;"/><text fill="#000000" font-family="sans-serif" font-size="14" lengthAdjust="spacing" textLength="101" x="429.5" y="1213.8545">rank : number</text><ellipse cx="420.5" cy="1226.8047" fill="none" rx="3" ry="3" style="stroke:#038048;stroke-width:1.0;"/><text fill="#000000" font-family="sans-serif" font-size="14" lengthAdjust="spacing" textLength="81" x="429.5" y="1230.1514">suit : string</text><line style="stroke:#181818;stroke-width:0.5;" x1="410.5" x2="718.5" y1="1237.4531" y2="1237.4531"/><ellipse cx="420.5" cy="1251.1016" fill="#84BE84" rx="3" ry="3" style="stroke:#038048;stroke-width:1.0;"/><text fill="#000000" font-family="sans-serif" font-size="14" lengthAdjust="spacing" textLength="284" x="429.5" y="1254.4482">constructor(rank : number, suit : string)</text><ellipse cx="420.5" cy="1267.3984" fill="#84BE84" rx="3" ry="3" style="stroke:#038048;stroke-width:1.0;"/><text fill="#000000" font-family="sans-serif" font-size="14" lengthAdjust="spacing" textLength="125" x="429.5" y="1270.7451">toString() : string</text><ellipse cx="420.5" cy="1283.6953" fill="#84BE84" rx="3" ry="3" style="stroke:#038048;stroke-width:1.0;"/><text fill="#000000" font-family="sans-serif" font-size="14" lengthAdjust="spacing" textLength="133" x="429.5" y="1287.042">valueOf() : number</text></g><!--MD5=[23712d3ac6bfbd8342481e442b81976e]
link CardTable to Player--><g id="link_CardTable_Player"><path codeLine="1" d="M486.575,136.16 C472.45,145.33 458.766,155.32 446.5,166 C431.797,178.8 417.74,193.58 404.699,208.96 " fill="none" id="CardTable-to-Player" style="stroke:#181818;stroke-width:1.0;"/><polygon fill="#181818" points="401.406,212.88,410.2564,208.5591,404.621,209.0506,404.1294,203.4152,401.406,212.88" style="stroke:#181818;stroke-width:1.0;"/><rect fill="none" height="6" style="stroke:#C82930;stroke-width:1.0;" width="6" x="449.5" y="172.0664"/><text fill="#000000" font-family="sans-serif" font-size="13" lengthAdjust="spacing" textLength="40" x="459.5" y="179.0669">dealer</text><text fill="#000000" font-family="sans-serif" font-size="13" lengthAdjust="spacing" textLength="8" x="398.0925" y="202.0656">1</text></g><!--MD5=[23712d3ac6bfbd8342481e442b81976e]
link CardTable to Player--><g id="link_CardTable_Player"><path codeLine="2" d="M553.708,136.1 C537.948,151.74 520.836,168.23 504.5,183 C494.809,191.76 484.705,200.67 474.438,209.54 " fill="none" id="CardTable-to-Player-1" style="stroke:#181818;stroke-width:1.0;"/><polygon fill="#181818" points="470.649,212.81,480.0818,209.9776,474.4411,209.5511,474.8676,203.9104,470.649,212.81" style="stroke:#181818;stroke-width:1.0;"/><rect fill="none" height="6" style="stroke:#C82930;stroke-width:1.0;" width="6" x="523.5" y="172.0664"/><text fill="#000000" font-family="sans-serif" font-size="13" lengthAdjust="spacing" textLength="47" x="533.5" y="179.0669">players</text><text fill="#000000" font-family="sans-serif" font-size="13" lengthAdjust="spacing" textLength="24" x="455.0675" y="201.9913">1..7</text></g><!--MD5=[5be6ca478e7a76e306586868ec6b7476]
link CardTable to Deck--><g id="link_CardTable_Deck"><path codeLine="3" d="M636.821,136.18 C659.397,213.91 687.229,348.415 651.5,457 C648.654,465.651 644.666,474.157 640.027,482.303 " fill="none" id="CardTable-to-Deck" style="stroke:#181818;stroke-width:1.0;"/><polygon fill="#181818" points="637.387,486.789,645.4006,481.0634,639.9241,482.4805,638.507,477.004,637.387,486.789" style="stroke:#181818;stroke-width:1.0;"/><rect fill="none" height="6" style="stroke:#C82930;stroke-width:1.0;" width="6" x="651.5" y="172.0664"/><text fill="#000000" font-family="sans-serif" font-size="13" lengthAdjust="spacing" textLength="30" x="661.5" y="179.0669">deck</text><text fill="#000000" font-family="sans-serif" font-size="13" lengthAdjust="spacing" textLength="8" x="634.9528" y="475.9386">1</text></g><!--MD5=[ba655ea5bda287e857f2bd8f48e4fd4a]
link CardTable to PlayingCardCollection--><g id="link_CardTable_PlayingCardCollection"><path codeLine="4" d="M682.693,136.08 C689.706,145.49 695.928,155.55 700.5,166 C809.199,414.455 845.409,525.769 738.5,775 C729.791,795.304 717.231,814.293 702.789,831.642 " fill="none" id="CardTable-to-PlayingCardCollection" style="stroke:#181818;stroke-width:1.0;"/><polygon fill="#181818" points="699.481,835.551,708.3481,831.2644,702.7108,831.7341,702.2411,826.0968,699.481,835.551" style="stroke:#181818;stroke-width:1.0;"/><rect fill="none" height="6" style="stroke:#C82930;stroke-width:1.0;" width="6" x="805.5" y="549.0664"/><text fill="#000000" font-family="sans-serif" font-size="13" lengthAdjust="spacing" textLength="68" x="815.5" y="556.0669">discardPile</text><text fill="#000000" font-family="sans-serif" font-size="13" lengthAdjust="spacing" textLength="8" x="700.2813" y="825.0011">1</text></g><!--MD5=[bf81dc2c3904e28139a99db6d9ac072d]
link Deck to PlayingCardCollection--><g id="link_Deck_PlayingCardCollection"><path codeLine="5" d="M579.548,616.136 C576.855,674.176 572.819,761.19 569.604,830.487 " fill="none" id="Deck-to-PlayingCardCollection" style="stroke:#181818;stroke-width:1.0;"/><polygon fill="#181818" points="569.354,835.866,573.7688,827.0621,569.5869,830.8714,565.7775,826.6895,569.354,835.866" style="stroke:#181818;stroke-width:1.0;"/><rect fill="none" height="6" style="stroke:#C82930;stroke-width:1.0;" width="6" x="581.5" y="708.0664"/><text fill="#000000" font-family="sans-serif" font-size="13" lengthAdjust="spacing" textLength="138" x="591.5" y="715.0669">playingCardCollection</text><text fill="#000000" font-family="sans-serif" font-size="13" lengthAdjust="spacing" textLength="8" x="561.414" y="824.9839">1</text></g><!--MD5=[e038dad2a60840f9ab37442b423fd2aa]
link Hand to PlayingCardCollection--><g id="link_Hand_PlayingCardCollection"><path codeLine="6" d="M388.468,775.289 C404.033,789.898 421.068,805.886 438.217,821.98 " fill="none" id="Hand-to-PlayingCardCollection" style="stroke:#181818;stroke-width:1.0;"/><polygon fill="none" points="443.156,817.015,452.949,835.806,433.575,827.224,443.156,817.015" style="stroke:#181818;stroke-width:1.0;"/></g><!--MD5=[56fbd05464c9cb1c8c48b2b6b42054b4]
link Player to Hand--><g id="link_Player_Hand"><path codeLine="7" d="M320.5,457.007 C320.5,517.775 320.5,589.19 320.5,640.534 " fill="none" id="Player-to-Hand" style="stroke:#181818;stroke-width:1.0;"/><polygon fill="#181818" points="320.5,645.752,324.5,636.752,320.5,640.752,316.5,636.752,320.5,645.752" style="stroke:#181818;stroke-width:1.0;"/><rect fill="none" height="6" style="stroke:#C82930;stroke-width:1.0;" width="6" x="323.5" y="549.0664"/><text fill="#000000" font-family="sans-serif" font-size="13" lengthAdjust="spacing" textLength="32" x="333.5" y="556.0669">hand</text><text fill="#000000" font-family="sans-serif" font-size="13" lengthAdjust="spacing" textLength="8" x="312.0625" y="634.8975">1</text></g><!--MD5=[d9df8bb512f2d800fa136cb1b754f869]
link PlayingCardCollection to PlayingCard--><g id="link_PlayingCardCollection_PlayingCard"><path codeLine="8" d="M564.5,1047.052 C564.5,1070.66 564.5,1095.517 564.5,1118.444 " fill="none" id="PlayingCardCollection-to-PlayingCard" style="stroke:#181818;stroke-width:1.0;"/><polygon fill="#181818" points="564.5,1123.612,568.5,1114.612,564.5,1118.612,560.5,1114.612,564.5,1123.612" style="stroke:#181818;stroke-width:1.0;"/><rect fill="none" height="6" style="stroke:#C82930;stroke-width:1.0;" width="6" x="567.5" y="1083.0664"/><text fill="#000000" font-family="sans-serif" font-size="13" lengthAdjust="spacing" textLength="83" x="577.5" y="1090.0669">playingCards</text><text fill="#000000" font-family="sans-serif" font-size="13" lengthAdjust="spacing" textLength="23" x="540.5477" y="1112.9779">0..*</text></g><!--MD5=[7e8b8d8fe91ad5bab16d601373c3b7f6]
@startuml
CardTable - -> "1" Player : -dealer
  CardTable - -> "1..7" Player : -players
  CardTable - -> "1" Deck : -deck
  CardTable - -> "1" PlayingCardCollection : -discardPile
  Deck - -> "1" PlayingCardCollection : -playingCardCollection
  Hand - -|> PlayingCardCollection
  Player - -> "1" Hand : -hand
  PlayingCardCollection - -> "0..*" PlayingCard : -playingCards

  class CardTable{
    +constructor(numberOfPlayers : number)
    -compareHands(dealer : Player, player : Player) : Player
    -deal() : PalyingCard
    -playOut(dealer : Player, player : Player)
    +playRounds(numberOfRounds : number) : object[]
  }

  class Deck{
    +«get» count : number
    +constructor()
    +add(playingCards: PlayingCard[])
    +deal() : PlayingCard
    +shuffle()
  }

  class Hand{
    +constructor(playingCards : PlayingCard[] = [])
    +copy() : Hand
    +discardAll() : PlayingCard[]
    +toString() : string
    +valueOf() : number
  }

  class Player{
      -nickname : string
      -standValue : number
      +«get» canHit : boolean
      +«get» isBusted : boolean
      +«get» isNaturalWinner : boolean
      +«get» nickname : string
      +constructor(nickname : string, standValue : number = 14, hand : Hand = new Hand())
      +addToHand(playingCard : PlayingCard)
      +copy() : Player
      +discardHand() : PlayingCard[]
      +toString() : string
      +valueOf() : number
  }

  class PlayingCard<<immutable>>{
      +{static} ranks : number[]
      +{static} suits : string[]
      +rank : number
      +suit : string
      +constructor(rank : number, suit : string)
      +toString() : string
      +valueOf() : number
  }

  class PlayingCardCollection{
      +constructor(playingCards : PlayingCard[] = [])
      +add(...playingCards : ...PlayingCard)
      +copy() : PlayingCardCollection
      +copyTo(array : Array, index : number = -1)
      +removeAll() : PlayingCard[]
      +removeAt(index : number, count : number = 1) : PlayingCard[]
      +shuffle()
      +toString() : string
      +valueOf() : number
      +*[Symbol.iterator]() : PlayingCard
  }
@enduml

PlantUML version 1.2022.7beta11(Unknown compile time)
(GPL source distribution)
Java Runtime: Java(TM) SE Runtime Environment
JVM: Java HotSpot(TM) 64-Bit Server VM
Default Encoding: UTF-8
Language: en
Country: US
--></g></svg>