<?xml version="1.0" encoding="UTF-8" standalone="no"?><svg xmlns="http://www.w3.org/2000/svg" xmlns:xlink="http://www.w3.org/1999/xlink" contentStyleType="text/css" height="999px" preserveAspectRatio="none" style="width:1086px;height:999px;background:#FFFFFF;" version="1.1" viewBox="0 0 1086 999" width="1086px" zoomAndPan="magnify"><defs/><g><!--MD5=[8b60166c765e9dfc5d488a49c3952d3f]
class CardTable--><g id="elem_CardTable"><rect codeLine="10" fill="#F1F1F1" height="129.4844" id="CardTable" rx="2.5" ry="2.5" style="stroke:#181818;stroke-width:0.5;" width="412" x="226.5" y="7"/><ellipse cx="391.75" cy="23" fill="#ADD1B2" rx="11" ry="11" style="stroke:#181818;stroke-width:1.0;"/><path d="M394.0938,18.6719 C393.1563,18.2344 392.5625,18.0938 391.6875,18.0938 C389.0625,18.0938 387.0625,20.1719 387.0625,22.8906 L387.0625,24.0156 C387.0625,26.5938 389.1719,28.4844 392.0625,28.4844 C393.2813,28.4844 394.4375,28.1875 395.1875,27.6406 C395.7656,27.2344 396.0938,26.7813 396.0938,26.3906 C396.0938,25.9375 395.7031,25.5469 395.2344,25.5469 C395.0156,25.5469 394.8125,25.625 394.625,25.8125 C394.1719,26.2969 394.1719,26.2969 393.9844,26.3906 C393.5625,26.6563 392.875,26.7813 392.1094,26.7813 C390.0625,26.7813 388.7656,25.6875 388.7656,23.9844 L388.7656,22.8906 C388.7656,21.1094 390.0156,19.7969 391.75,19.7969 C392.3281,19.7969 392.9375,19.9531 393.4063,20.2031 C393.8906,20.4844 394.0625,20.7031 394.1563,21.1094 C394.2188,21.5156 394.25,21.6406 394.3906,21.7656 C394.5313,21.9063 394.7656,22.0156 394.9844,22.0156 C395.25,22.0156 395.5156,21.875 395.6875,21.6563 C395.7969,21.5 395.8281,21.3125 395.8281,20.8906 L395.8281,19.4688 C395.8281,19.0313 395.8125,18.9063 395.7188,18.75 C395.5625,18.4844 395.2813,18.3438 394.9844,18.3438 C394.6875,18.3438 394.4844,18.4375 394.2656,18.75 L394.0938,18.6719 Z " fill="#000000"/><text fill="#000000" font-family="sans-serif" font-size="14" lengthAdjust="spacing" textLength="73" x="412.25" y="27.8467">CardTable</text><line style="stroke:#181818;stroke-width:0.5;" x1="227.5" x2="637.5" y1="39" y2="39"/><line style="stroke:#181818;stroke-width:0.5;" x1="227.5" x2="637.5" y1="47" y2="47"/><ellipse cx="237.5" cy="58" fill="#84BE84" rx="3" ry="3" style="stroke:#038048;stroke-width:1.0;"/><text fill="#000000" font-family="sans-serif" font-size="14" lengthAdjust="spacing" textLength="287" x="246.5" y="63.9951">constructor(numberOfPlayers : number)</text><rect fill="#F24D5C" height="6" style="stroke:#C82930;stroke-width:1.0;" width="6" x="234.5" y="71.2969"/><text fill="#000000" font-family="sans-serif" font-size="14" lengthAdjust="spacing" textLength="386" x="246.5" y="80.292">compareHands(dealer : Player, player : Player) : Player</text><rect fill="#F24D5C" height="6" style="stroke:#C82930;stroke-width:1.0;" width="6" x="234.5" y="87.5938"/><text fill="#000000" font-family="sans-serif" font-size="14" lengthAdjust="spacing" textLength="137" x="246.5" y="96.5889">deal() : PalyingCard</text><rect fill="#F24D5C" height="6" style="stroke:#C82930;stroke-width:1.0;" width="6" x="234.5" y="103.8906"/><text fill="#000000" font-family="sans-serif" font-size="14" lengthAdjust="spacing" textLength="278" x="246.5" y="112.8857">playOut(dealer : Player, player : Player)</text><ellipse cx="237.5" cy="123.1875" fill="#84BE84" rx="3" ry="3" style="stroke:#038048;stroke-width:1.0;"/><text fill="#000000" font-family="sans-serif" font-size="14" lengthAdjust="spacing" textLength="286" x="246.5" y="129.1826">playRounds(numberOfRounds : number)</text></g><!--MD5=[30299a58ba6b78debaaed5ddbb42f29a]
class Deck--><g id="elem_Deck"><rect codeLine="18" fill="#F1F1F1" height="129.4844" id="Deck" rx="2.5" ry="2.5" style="stroke:#181818;stroke-width:0.5;" width="257" x="7" y="270.5"/><ellipse cx="112.75" cy="286.5" fill="#ADD1B2" rx="11" ry="11" style="stroke:#181818;stroke-width:1.0;"/><path d="M115.0938,282.1719 C114.1563,281.7344 113.5625,281.5938 112.6875,281.5938 C110.0625,281.5938 108.0625,283.6719 108.0625,286.3906 L108.0625,287.5156 C108.0625,290.0938 110.1719,291.9844 113.0625,291.9844 C114.2813,291.9844 115.4375,291.6875 116.1875,291.1406 C116.7656,290.7344 117.0938,290.2813 117.0938,289.8906 C117.0938,289.4375 116.7031,289.0469 116.2344,289.0469 C116.0156,289.0469 115.8125,289.125 115.625,289.3125 C115.1719,289.7969 115.1719,289.7969 114.9844,289.8906 C114.5625,290.1563 113.875,290.2813 113.1094,290.2813 C111.0625,290.2813 109.7656,289.1875 109.7656,287.4844 L109.7656,286.3906 C109.7656,284.6094 111.0156,283.2969 112.75,283.2969 C113.3281,283.2969 113.9375,283.4531 114.4063,283.7031 C114.8906,283.9844 115.0625,284.2031 115.1563,284.6094 C115.2188,285.0156 115.25,285.1406 115.3906,285.2656 C115.5313,285.4063 115.7656,285.5156 115.9844,285.5156 C116.25,285.5156 116.5156,285.375 116.6875,285.1563 C116.7969,285 116.8281,284.8125 116.8281,284.3906 L116.8281,282.9688 C116.8281,282.5313 116.8125,282.4063 116.7188,282.25 C116.5625,281.9844 116.2813,281.8438 115.9844,281.8438 C115.6875,281.8438 115.4844,281.9375 115.2656,282.25 L115.0938,282.1719 Z " fill="#000000"/><text fill="#000000" font-family="sans-serif" font-size="14" lengthAdjust="spacing" textLength="37" x="133.25" y="291.3467">Deck</text><line style="stroke:#181818;stroke-width:0.5;" x1="8" x2="263" y1="302.5" y2="302.5"/><ellipse cx="18" cy="313.5" fill="none" rx="3" ry="3" style="stroke:#038048;stroke-width:1.0;"/><text fill="#000000" font-family="sans-serif" font-size="14" lengthAdjust="spacing" textLength="155" x="27" y="319.4951">«get» count : number</text><line style="stroke:#181818;stroke-width:0.5;" x1="8" x2="263" y1="326.7969" y2="326.7969"/><ellipse cx="18" cy="337.7969" fill="#84BE84" rx="3" ry="3" style="stroke:#038048;stroke-width:1.0;"/><text fill="#000000" font-family="sans-serif" font-size="14" lengthAdjust="spacing" textLength="94" x="27" y="343.792">constructor()</text><ellipse cx="18" cy="354.0938" fill="#84BE84" rx="3" ry="3" style="stroke:#038048;stroke-width:1.0;"/><text fill="#000000" font-family="sans-serif" font-size="14" lengthAdjust="spacing" textLength="231" x="27" y="360.0889">add(playingCards: PlayingCard[])</text><ellipse cx="18" cy="370.3906" fill="#84BE84" rx="3" ry="3" style="stroke:#038048;stroke-width:1.0;"/><text fill="#000000" font-family="sans-serif" font-size="14" lengthAdjust="spacing" textLength="137" x="27" y="376.3857">deal() : PlayingCard</text><ellipse cx="18" cy="386.6875" fill="#84BE84" rx="3" ry="3" style="stroke:#038048;stroke-width:1.0;"/><text fill="#000000" font-family="sans-serif" font-size="14" lengthAdjust="spacing" textLength="59" x="27" y="392.6826">shuffle()</text></g><!--MD5=[e2149c685ad626b88c35680638ab78eb]
class PlayingCardCollection--><g id="elem_PlayingCardCollection"><rect codeLine="59" fill="#F1F1F1" height="210.9688" id="PlayingCardCollection" rx="2.5" ry="2.5" style="stroke:#181818;stroke-width:0.5;" width="469" x="100" y="534"/><ellipse cx="251.75" cy="550" fill="#ADD1B2" rx="11" ry="11" style="stroke:#181818;stroke-width:1.0;"/><path d="M254.0938,545.6719 C253.1563,545.2344 252.5625,545.0938 251.6875,545.0938 C249.0625,545.0938 247.0625,547.1719 247.0625,549.8906 L247.0625,551.0156 C247.0625,553.5938 249.1719,555.4844 252.0625,555.4844 C253.2813,555.4844 254.4375,555.1875 255.1875,554.6406 C255.7656,554.2344 256.0938,553.7813 256.0938,553.3906 C256.0938,552.9375 255.7031,552.5469 255.2344,552.5469 C255.0156,552.5469 254.8125,552.625 254.625,552.8125 C254.1719,553.2969 254.1719,553.2969 253.9844,553.3906 C253.5625,553.6563 252.875,553.7813 252.1094,553.7813 C250.0625,553.7813 248.7656,552.6875 248.7656,550.9844 L248.7656,549.8906 C248.7656,548.1094 250.0156,546.7969 251.75,546.7969 C252.3281,546.7969 252.9375,546.9531 253.4063,547.2031 C253.8906,547.4844 254.0625,547.7031 254.1563,548.1094 C254.2188,548.5156 254.25,548.6406 254.3906,548.7656 C254.5313,548.9063 254.7656,549.0156 254.9844,549.0156 C255.25,549.0156 255.5156,548.875 255.6875,548.6563 C255.7969,548.5 255.8281,548.3125 255.8281,547.8906 L255.8281,546.4688 C255.8281,546.0313 255.8125,545.9063 255.7188,545.75 C255.5625,545.4844 255.2813,545.3438 254.9844,545.3438 C254.6875,545.3438 254.4844,545.4375 254.2656,545.75 L254.0938,545.6719 Z " fill="#000000"/><text fill="#000000" font-family="sans-serif" font-size="14" lengthAdjust="spacing" textLength="157" x="272.25" y="554.8467">PlayingCardCollection</text><line style="stroke:#181818;stroke-width:0.5;" x1="101" x2="568" y1="566" y2="566"/><line style="stroke:#181818;stroke-width:0.5;" x1="101" x2="568" y1="574" y2="574"/><ellipse cx="111" cy="585" fill="#84BE84" rx="3" ry="3" style="stroke:#038048;stroke-width:1.0;"/><text fill="#000000" font-family="sans-serif" font-size="14" lengthAdjust="spacing" textLength="280" x="120" y="590.9951">constructor(rank : number, suit: string)</text><ellipse cx="111" cy="601.2969" fill="#84BE84" rx="3" ry="3" style="stroke:#038048;stroke-width:1.0;"/><text fill="#000000" font-family="sans-serif" font-size="14" lengthAdjust="spacing" textLength="255" x="120" y="607.292">add(...playingCards : ...PlayingCard)</text><ellipse cx="111" cy="617.5938" fill="#84BE84" rx="3" ry="3" style="stroke:#038048;stroke-width:1.0;"/><text fill="#000000" font-family="sans-serif" font-size="14" lengthAdjust="spacing" textLength="215" x="120" y="623.5889">copy() : PlayingCardCollection</text><ellipse cx="111" cy="633.8906" fill="#84BE84" rx="3" ry="3" style="stroke:#038048;stroke-width:1.0;"/><text fill="#000000" font-family="sans-serif" font-size="14" lengthAdjust="spacing" textLength="300" x="120" y="639.8857">copyTo(array : Array, index : number = -1)</text><ellipse cx="111" cy="650.1875" fill="#84BE84" rx="3" ry="3" style="stroke:#038048;stroke-width:1.0;"/><text fill="#000000" font-family="sans-serif" font-size="14" lengthAdjust="spacing" textLength="190" x="120" y="656.1826">removeAll() : PlayingCard[]</text><ellipse cx="111" cy="666.4844" fill="#84BE84" rx="3" ry="3" style="stroke:#038048;stroke-width:1.0;"/><text fill="#000000" font-family="sans-serif" font-size="14" lengthAdjust="spacing" textLength="443" x="120" y="672.4795">removeAt(index : number, count : number = 1) : PlayingCard[]</text><ellipse cx="111" cy="682.7813" fill="#84BE84" rx="3" ry="3" style="stroke:#038048;stroke-width:1.0;"/><text fill="#000000" font-family="sans-serif" font-size="14" lengthAdjust="spacing" textLength="59" x="120" y="688.7764">shuffle()</text><ellipse cx="111" cy="699.0781" fill="#84BE84" rx="3" ry="3" style="stroke:#038048;stroke-width:1.0;"/><text fill="#000000" font-family="sans-serif" font-size="14" lengthAdjust="spacing" textLength="125" x="120" y="705.0732">toString() : string</text><ellipse cx="111" cy="715.375" fill="#84BE84" rx="3" ry="3" style="stroke:#038048;stroke-width:1.0;"/><text fill="#000000" font-family="sans-serif" font-size="14" lengthAdjust="spacing" textLength="133" x="120" y="721.3701">valueOf() : number</text><ellipse cx="111" cy="731.6719" fill="#84BE84" rx="3" ry="3" style="stroke:#038048;stroke-width:1.0;"/><text fill="#000000" font-family="sans-serif" font-size="14" lengthAdjust="spacing" textLength="239" x="120" y="737.667">*[Symbol.iterator]() : PlayingCard</text></g><!--MD5=[2cb47ba637a0d19583e6199456f6ad0b]
class Player--><g id="elem_Player"><rect codeLine="34" fill="#F1F1F1" height="243.5625" id="Player" rx="2.5" ry="2.5" style="stroke:#181818;stroke-width:0.5;" width="627" x="452" y="213"/><ellipse cx="739.25" cy="229" fill="#ADD1B2" rx="11" ry="11" style="stroke:#181818;stroke-width:1.0;"/><path d="M741.5938,224.6719 C740.6563,224.2344 740.0625,224.0938 739.1875,224.0938 C736.5625,224.0938 734.5625,226.1719 734.5625,228.8906 L734.5625,230.0156 C734.5625,232.5938 736.6719,234.4844 739.5625,234.4844 C740.7813,234.4844 741.9375,234.1875 742.6875,233.6406 C743.2656,233.2344 743.5938,232.7813 743.5938,232.3906 C743.5938,231.9375 743.2031,231.5469 742.7344,231.5469 C742.5156,231.5469 742.3125,231.625 742.125,231.8125 C741.6719,232.2969 741.6719,232.2969 741.4844,232.3906 C741.0625,232.6563 740.375,232.7813 739.6094,232.7813 C737.5625,232.7813 736.2656,231.6875 736.2656,229.9844 L736.2656,228.8906 C736.2656,227.1094 737.5156,225.7969 739.25,225.7969 C739.8281,225.7969 740.4375,225.9531 740.9063,226.2031 C741.3906,226.4844 741.5625,226.7031 741.6563,227.1094 C741.7188,227.5156 741.75,227.6406 741.8906,227.7656 C742.0313,227.9063 742.2656,228.0156 742.4844,228.0156 C742.75,228.0156 743.0156,227.875 743.1875,227.6563 C743.2969,227.5 743.3281,227.3125 743.3281,226.8906 L743.3281,225.4688 C743.3281,225.0313 743.3125,224.9063 743.2188,224.75 C743.0625,224.4844 742.7813,224.3438 742.4844,224.3438 C742.1875,224.3438 741.9844,224.4375 741.7656,224.75 L741.5938,224.6719 Z " fill="#000000"/><text fill="#000000" font-family="sans-serif" font-size="14" lengthAdjust="spacing" textLength="44" x="759.75" y="233.8467">Player</text><line style="stroke:#181818;stroke-width:0.5;" x1="453" x2="1078" y1="245" y2="245"/><rect fill="none" height="6" style="stroke:#C82930;stroke-width:1.0;" width="6" x="460" y="253"/><text fill="#000000" font-family="sans-serif" font-size="14" lengthAdjust="spacing" textLength="125" x="472" y="261.9951">nickname : string</text><rect fill="none" height="6" style="stroke:#C82930;stroke-width:1.0;" width="6" x="460" y="269.2969"/><text fill="#000000" font-family="sans-serif" font-size="14" lengthAdjust="spacing" textLength="148" x="472" y="278.292">standValue : number</text><ellipse cx="463" cy="288.5938" fill="none" rx="3" ry="3" style="stroke:#038048;stroke-width:1.0;"/><text fill="#000000" font-family="sans-serif" font-size="14" lengthAdjust="spacing" textLength="162" x="472" y="294.5889">«get» canHit : boolean</text><ellipse cx="463" cy="304.8906" fill="none" rx="3" ry="3" style="stroke:#038048;stroke-width:1.0;"/><text fill="#000000" font-family="sans-serif" font-size="14" lengthAdjust="spacing" textLength="177" x="472" y="310.8857">«get» isBusted : boolean</text><ellipse cx="463" cy="321.1875" fill="none" rx="3" ry="3" style="stroke:#038048;stroke-width:1.0;"/><text fill="#000000" font-family="sans-serif" font-size="14" lengthAdjust="spacing" textLength="229" x="472" y="327.1826">«get» isNaturalWinner : boolean</text><ellipse cx="463" cy="337.4844" fill="none" rx="3" ry="3" style="stroke:#038048;stroke-width:1.0;"/><text fill="#000000" font-family="sans-serif" font-size="14" lengthAdjust="spacing" textLength="170" x="472" y="343.4795">«get» nickname : string</text><line style="stroke:#181818;stroke-width:0.5;" x1="453" x2="1078" y1="350.7813" y2="350.7813"/><ellipse cx="463" cy="361.7813" fill="#84BE84" rx="3" ry="3" style="stroke:#038048;stroke-width:1.0;"/><text fill="#000000" font-family="sans-serif" font-size="14" lengthAdjust="spacing" textLength="601" x="472" y="367.7764">constructor(nickname : string, standValue : number = 14, hand : Hand = new Hand())</text><ellipse cx="463" cy="378.0781" fill="#84BE84" rx="3" ry="3" style="stroke:#038048;stroke-width:1.0;"/><text fill="#000000" font-family="sans-serif" font-size="14" lengthAdjust="spacing" textLength="272" x="472" y="384.0732">addToHand(playingCard : PlayingCard)</text><ellipse cx="463" cy="394.375" fill="#84BE84" rx="3" ry="3" style="stroke:#038048;stroke-width:1.0;"/><text fill="#000000" font-family="sans-serif" font-size="14" lengthAdjust="spacing" textLength="102" x="472" y="400.3701">copy() : Player</text><ellipse cx="463" cy="410.6719" fill="#84BE84" rx="3" ry="3" style="stroke:#038048;stroke-width:1.0;"/><text fill="#000000" font-family="sans-serif" font-size="14" lengthAdjust="spacing" textLength="204" x="472" y="416.667">discardHand() : PlayingCard[]</text><ellipse cx="463" cy="426.9688" fill="#84BE84" rx="3" ry="3" style="stroke:#038048;stroke-width:1.0;"/><text fill="#000000" font-family="sans-serif" font-size="14" lengthAdjust="spacing" textLength="125" x="472" y="432.9639">toString() : string</text><ellipse cx="463" cy="443.2656" fill="#84BE84" rx="3" ry="3" style="stroke:#038048;stroke-width:1.0;"/><text fill="#000000" font-family="sans-serif" font-size="14" lengthAdjust="spacing" textLength="133" x="472" y="449.2607">valueOf() : number</text></g><!--MD5=[b3a980551af4fb5504d75634056fd54d]
class Hand--><g id="elem_Hand"><rect codeLine="26" fill="#F1F1F1" height="129.4844" id="Hand" rx="2.5" ry="2.5" style="stroke:#181818;stroke-width:0.5;" width="348" x="541.5" y="842.5"/><ellipse cx="693.25" cy="858.5" fill="#ADD1B2" rx="11" ry="11" style="stroke:#181818;stroke-width:1.0;"/><path d="M695.5938,854.1719 C694.6563,853.7344 694.0625,853.5938 693.1875,853.5938 C690.5625,853.5938 688.5625,855.6719 688.5625,858.3906 L688.5625,859.5156 C688.5625,862.0938 690.6719,863.9844 693.5625,863.9844 C694.7813,863.9844 695.9375,863.6875 696.6875,863.1406 C697.2656,862.7344 697.5938,862.2813 697.5938,861.8906 C697.5938,861.4375 697.2031,861.0469 696.7344,861.0469 C696.5156,861.0469 696.3125,861.125 696.125,861.3125 C695.6719,861.7969 695.6719,861.7969 695.4844,861.8906 C695.0625,862.1563 694.375,862.2813 693.6094,862.2813 C691.5625,862.2813 690.2656,861.1875 690.2656,859.4844 L690.2656,858.3906 C690.2656,856.6094 691.5156,855.2969 693.25,855.2969 C693.8281,855.2969 694.4375,855.4531 694.9063,855.7031 C695.3906,855.9844 695.5625,856.2031 695.6563,856.6094 C695.7188,857.0156 695.75,857.1406 695.8906,857.2656 C696.0313,857.4063 696.2656,857.5156 696.4844,857.5156 C696.75,857.5156 697.0156,857.375 697.1875,857.1563 C697.2969,857 697.3281,856.8125 697.3281,856.3906 L697.3281,854.9688 C697.3281,854.5313 697.3125,854.4063 697.2188,854.25 C697.0625,853.9844 696.7813,853.8438 696.4844,853.8438 C696.1875,853.8438 695.9844,853.9375 695.7656,854.25 L695.5938,854.1719 Z " fill="#000000"/><text fill="#000000" font-family="sans-serif" font-size="14" lengthAdjust="spacing" textLength="36" x="713.75" y="863.3467">Hand</text><line style="stroke:#181818;stroke-width:0.5;" x1="542.5" x2="888.5" y1="874.5" y2="874.5"/><line style="stroke:#181818;stroke-width:0.5;" x1="542.5" x2="888.5" y1="882.5" y2="882.5"/><ellipse cx="552.5" cy="893.5" fill="#84BE84" rx="3" ry="3" style="stroke:#038048;stroke-width:1.0;"/><text fill="#000000" font-family="sans-serif" font-size="14" lengthAdjust="spacing" textLength="322" x="561.5" y="899.4951">constructor(playingCards : PlayingCard[] = [])</text><ellipse cx="552.5" cy="909.7969" fill="#84BE84" rx="3" ry="3" style="stroke:#038048;stroke-width:1.0;"/><text fill="#000000" font-family="sans-serif" font-size="14" lengthAdjust="spacing" textLength="94" x="561.5" y="915.792">copy() : Hand</text><ellipse cx="552.5" cy="926.0938" fill="#84BE84" rx="3" ry="3" style="stroke:#038048;stroke-width:1.0;"/><text fill="#000000" font-family="sans-serif" font-size="14" lengthAdjust="spacing" textLength="186" x="561.5" y="932.0889">discardAll() : PlayingCard[]</text><ellipse cx="552.5" cy="942.3906" fill="#84BE84" rx="3" ry="3" style="stroke:#038048;stroke-width:1.0;"/><text fill="#000000" font-family="sans-serif" font-size="14" lengthAdjust="spacing" textLength="125" x="561.5" y="948.3857">toString() : string</text><ellipse cx="552.5" cy="958.6875" fill="#84BE84" rx="3" ry="3" style="stroke:#038048;stroke-width:1.0;"/><text fill="#000000" font-family="sans-serif" font-size="14" lengthAdjust="spacing" textLength="133" x="561.5" y="964.6826">valueOf() : number</text></g><!--MD5=[015579201aeb56fae2e96ff8a3148310]
class PlayingCard--><g id="elem_PlayingCard"><rect codeLine="49" fill="#F1F1F1" height="170.3438" id="PlayingCard" rx="2.5" ry="2.5" style="stroke:#181818;stroke-width:0.5;" width="310" x="179.5" y="822"/><ellipse cx="288.25" cy="842.1328" fill="#ADD1B2" rx="11" ry="11" style="stroke:#181818;stroke-width:1.0;"/><path d="M290.5938,837.8047 C289.6563,837.3672 289.0625,837.2266 288.1875,837.2266 C285.5625,837.2266 283.5625,839.3047 283.5625,842.0234 L283.5625,843.1484 C283.5625,845.7266 285.6719,847.6172 288.5625,847.6172 C289.7813,847.6172 290.9375,847.3203 291.6875,846.7734 C292.2656,846.3672 292.5938,845.9141 292.5938,845.5234 C292.5938,845.0703 292.2031,844.6797 291.7344,844.6797 C291.5156,844.6797 291.3125,844.7578 291.125,844.9453 C290.6719,845.4297 290.6719,845.4297 290.4844,845.5234 C290.0625,845.7891 289.375,845.9141 288.6094,845.9141 C286.5625,845.9141 285.2656,844.8203 285.2656,843.1172 L285.2656,842.0234 C285.2656,840.2422 286.5156,838.9297 288.25,838.9297 C288.8281,838.9297 289.4375,839.0859 289.9063,839.3359 C290.3906,839.6172 290.5625,839.8359 290.6563,840.2422 C290.7188,840.6484 290.75,840.7734 290.8906,840.8984 C291.0313,841.0391 291.2656,841.1484 291.4844,841.1484 C291.75,841.1484 292.0156,841.0078 292.1875,840.7891 C292.2969,840.6328 292.3281,840.4453 292.3281,840.0234 L292.3281,838.6016 C292.3281,838.1641 292.3125,838.0391 292.2188,837.8828 C292.0625,837.6172 291.7813,837.4766 291.4844,837.4766 C291.1875,837.4766 290.9844,837.5703 290.7656,837.8828 L290.5938,837.8047 Z " fill="#000000"/><text fill="#000000" font-family="sans-serif" font-size="12" font-style="italic" lengthAdjust="spacing" textLength="79" x="311.25" y="838.1387">«immutable»</text><text fill="#000000" font-family="sans-serif" font-size="14" lengthAdjust="spacing" textLength="84" x="308.75" y="853.9639">PlayingCard</text><line style="stroke:#181818;stroke-width:0.5;" x1="180.5" x2="488.5" y1="862.2656" y2="862.2656"/><ellipse cx="190.5" cy="873.2656" fill="none" rx="3" ry="3" style="stroke:#038048;stroke-width:1.0;"/><text fill="#000000" font-family="sans-serif" font-size="14" lengthAdjust="spacing" text-decoration="underline" textLength="118" x="199.5" y="879.2607">ranks : number[]</text><ellipse cx="190.5" cy="889.5625" fill="none" rx="3" ry="3" style="stroke:#038048;stroke-width:1.0;"/><text fill="#000000" font-family="sans-serif" font-size="14" lengthAdjust="spacing" text-decoration="underline" textLength="98" x="199.5" y="895.5576">suits : string[]</text><ellipse cx="190.5" cy="905.8594" fill="none" rx="3" ry="3" style="stroke:#038048;stroke-width:1.0;"/><text fill="#000000" font-family="sans-serif" font-size="14" lengthAdjust="spacing" textLength="101" x="199.5" y="911.8545">rank : number</text><ellipse cx="190.5" cy="922.1563" fill="none" rx="3" ry="3" style="stroke:#038048;stroke-width:1.0;"/><text fill="#000000" font-family="sans-serif" font-size="14" lengthAdjust="spacing" textLength="81" x="199.5" y="928.1514">suit : string</text><line style="stroke:#181818;stroke-width:0.5;" x1="180.5" x2="488.5" y1="935.4531" y2="935.4531"/><ellipse cx="190.5" cy="946.4531" fill="#84BE84" rx="3" ry="3" style="stroke:#038048;stroke-width:1.0;"/><text fill="#000000" font-family="sans-serif" font-size="14" lengthAdjust="spacing" textLength="284" x="199.5" y="952.4482">constructor(rank : number, suit : string)</text><ellipse cx="190.5" cy="962.75" fill="#84BE84" rx="3" ry="3" style="stroke:#038048;stroke-width:1.0;"/><text fill="#000000" font-family="sans-serif" font-size="14" lengthAdjust="spacing" textLength="125" x="199.5" y="968.7451">toString() : string</text><ellipse cx="190.5" cy="979.0469" fill="#84BE84" rx="3" ry="3" style="stroke:#038048;stroke-width:1.0;"/><text fill="#000000" font-family="sans-serif" font-size="14" lengthAdjust="spacing" textLength="133" x="199.5" y="985.042">valueOf() : number</text></g><!--MD5=[5be6ca478e7a76e306586868ec6b7476]
link CardTable to Deck--><g id="link_CardTable_Deck"><path codeLine="1" d="M304.898,136.076 C290.681,145.295 276.883,155.315 264.5,166 C231.327,194.624 201.088,232.996 178.239,265.841 " fill="none" id="CardTable-to-Deck" style="stroke:#181818;stroke-width:1.0;"/><polygon fill="#181818" points="175.207,270.231,183.614,265.1005,178.0493,266.1175,177.0324,260.5528,175.207,270.231" style="stroke:#181818;stroke-width:1.0;"/><rect fill="none" height="6" style="stroke:#C82930;stroke-width:1.0;" width="6" x="267.5" y="172.0664"/><text fill="#000000" font-family="sans-serif" font-size="13" lengthAdjust="spacing" textLength="30" x="277.5" y="179.0669">deck</text><text fill="#000000" font-family="sans-serif" font-size="13" lengthAdjust="spacing" textLength="8" x="281.6815" y="156.4564">1</text><text fill="#000000" font-family="sans-serif" font-size="13" lengthAdjust="spacing" textLength="8" x="171.1125" y="259.3742">1</text></g><!--MD5=[ba655ea5bda287e857f2bd8f48e4fd4a]
link CardTable to PlayingCardCollection--><g id="link_CardTable_PlayingCardCollection"><path codeLine="2" d="M387.802,136.081 C373.882,159.23 360.178,186.293 352.5,213 C322.605,316.985 321.006,441.122 325.121,528.396 " fill="none" id="CardTable-to-PlayingCardCollection" style="stroke:#181818;stroke-width:1.0;"/><polygon fill="#181818" points="325.374,533.567,328.9295,524.3823,325.1297,528.573,320.9391,524.7732,325.374,533.567" style="stroke:#181818;stroke-width:1.0;"/><rect fill="none" height="6" style="stroke:#C82930;stroke-width:1.0;" width="6" x="355.5" y="332.5664"/><text fill="#000000" font-family="sans-serif" font-size="13" lengthAdjust="spacing" textLength="68" x="365.5" y="339.5669">discardPile</text><text fill="#000000" font-family="sans-serif" font-size="13" lengthAdjust="spacing" textLength="8" x="374.1713" y="156.4619">1</text><text fill="#000000" font-family="sans-serif" font-size="13" lengthAdjust="spacing" textLength="8" x="316.4921" y="523.0181">1</text></g><!--MD5=[23712d3ac6bfbd8342481e442b81976e]
link CardTable to Player--><g id="link_CardTable_Player"><path codeLine="3" d="M513.535,136.136 C541.932,158.436 574.88,184.309 607.399,209.846 " fill="none" id="CardTable-to-Player" style="stroke:#181818;stroke-width:1.0;"/><polygon fill="#181818" points="611.362,212.958,606.7559,204.2526,607.4302,209.8691,601.8137,210.5435,611.362,212.958" style="stroke:#181818;stroke-width:1.0;"/><rect fill="none" height="6" style="stroke:#C82930;stroke-width:1.0;" width="6" x="571.5" y="172.0664"/><text fill="#000000" font-family="sans-serif" font-size="13" lengthAdjust="spacing" textLength="40" x="581.5" y="179.0669">dealer</text><text fill="#000000" font-family="sans-serif" font-size="13" lengthAdjust="spacing" textLength="8" x="514.4422" y="156.5233">1</text><text fill="#000000" font-family="sans-serif" font-size="13" lengthAdjust="spacing" textLength="8" x="593.2313" y="201.7444">1</text></g><!--MD5=[23712d3ac6bfbd8342481e442b81976e]
link CardTable to Player--><g id="link_CardTable_Player"><path codeLine="4" d="M585.639,136.028 C601.411,145.113 616.692,155.116 630.5,166 C646.483,178.598 661.768,193.427 675.931,208.969 " fill="none" id="CardTable-to-Player-1" style="stroke:#181818;stroke-width:1.0;"/><polygon fill="#181818" points="679.507,212.935,676.4497,203.5727,676.1583,209.222,670.509,208.9306,679.507,212.935" style="stroke:#181818;stroke-width:1.0;"/><rect fill="none" height="6" style="stroke:#C82930;stroke-width:1.0;" width="6" x="650.5" y="172.0664"/><text fill="#000000" font-family="sans-serif" font-size="13" lengthAdjust="spacing" textLength="47" x="660.5" y="179.0669">players</text><text fill="#000000" font-family="sans-serif" font-size="13" lengthAdjust="spacing" textLength="8" x="594.8832" y="156.4028">1</text><text fill="#000000" font-family="sans-serif" font-size="13" lengthAdjust="spacing" textLength="24" x="649.5356" y="202.1239">1..7</text></g><!--MD5=[bf81dc2c3904e28139a99db6d9ac072d]
link Deck to PlayingCardCollection--><g id="link_Deck_PlayingCardCollection"><path codeLine="5" d="M131.966,399.572 C132.855,432.692 138.409,472.697 156.5,504 C161.746,513.078 167.874,521.74 174.637,529.973 " fill="none" id="Deck-to-PlayingCardCollection" style="stroke:#181818;stroke-width:1.0;"/><polygon fill="#181818" points="178.007,533.98,175.2756,524.5175,174.7888,530.1533,169.153,529.6665,178.007,533.98" style="stroke:#181818;stroke-width:1.0;"/><rect fill="none" height="6" style="stroke:#C82930;stroke-width:1.0;" width="6" x="159.5" y="493.0664"/><text fill="#000000" font-family="sans-serif" font-size="13" lengthAdjust="spacing" textLength="138" x="169.5" y="500.0669">playingCardCollection</text><text fill="#000000" font-family="sans-serif" font-size="13" lengthAdjust="spacing" textLength="8" x="123.0949" y="419.9519">1</text><text fill="#000000" font-family="sans-serif" font-size="13" lengthAdjust="spacing" textLength="8" x="158.7223" y="523.1059">1</text></g><!--MD5=[8c18bd38c308b95d2e70729e1d2126af]
reverse link PlayingCardCollection to Hand--><g id="link_PlayingCardCollection_Hand"><path codeLine="6" d="M500.959,756.497 C543.253,785.97 587.154,816.562 624.141,842.337 " fill="none" id="PlayingCardCollection-backto-Hand" style="stroke:#181818;stroke-width:1.0;"/><polygon fill="none" points="496.941,762.229,484.534,745.052,504.945,750.743,496.941,762.229" style="stroke:#181818;stroke-width:1.0;"/></g><!--MD5=[56fbd05464c9cb1c8c48b2b6b42054b4]
link Player to Hand--><g id="link_Player_Hand"><path codeLine="7" d="M754.866,457.231 C744.721,572.884 729.798,742.997 721.546,837.075 " fill="none" id="Player-to-Hand" style="stroke:#181818;stroke-width:1.0;"/><polygon fill="#181818" points="721.085,842.329,725.8565,833.7131,721.5221,837.3481,717.8871,833.0138,721.085,842.329" style="stroke:#181818;stroke-width:1.0;"/><rect fill="none" height="6" style="stroke:#C82930;stroke-width:1.0;" width="6" x="750.5" y="637.0664"/><text fill="#000000" font-family="sans-serif" font-size="13" lengthAdjust="spacing" textLength="32" x="760.5" y="644.0669">hand</text><text fill="#000000" font-family="sans-serif" font-size="13" lengthAdjust="spacing" textLength="8" x="746.02" y="476.8145">1</text><text fill="#000000" font-family="sans-serif" font-size="13" lengthAdjust="spacing" textLength="8" x="713.2584" y="831.483">1</text></g><!--MD5=[d9df8bb512f2d800fa136cb1b754f869]
link PlayingCardCollection to PlayingCard--><g id="link_PlayingCardCollection_PlayingCard"><path codeLine="8" d="M334.5,745.052 C334.5,768.66 334.5,793.517 334.5,816.444 " fill="none" id="PlayingCardCollection-to-PlayingCard" style="stroke:#181818;stroke-width:1.0;"/><polygon fill="#181818" points="334.5,821.612,338.5,812.612,334.5,816.612,330.5,812.612,334.5,821.612" style="stroke:#181818;stroke-width:1.0;"/><rect fill="none" height="6" style="stroke:#C82930;stroke-width:1.0;" width="6" x="337.5" y="781.0664"/><text fill="#000000" font-family="sans-serif" font-size="13" lengthAdjust="spacing" textLength="83" x="347.5" y="788.0669">playingCards</text><text fill="#000000" font-family="sans-serif" font-size="13" lengthAdjust="spacing" textLength="8" x="326.2188" y="765.0736">1</text><text fill="#000000" font-family="sans-serif" font-size="13" lengthAdjust="spacing" textLength="23" x="310.5477" y="810.9779">0..*</text></g><!--MD5=[1d0031af36ba4c35a3e4509c535654fc]
@startuml
CardTable "1" - -> "1" Deck : -deck
  CardTable "1" - -> "1" PlayingCardCollection : -discardPile
  CardTable "1" - -> "1" Player : -dealer
  CardTable "1" - -> "1..7" Player : -players
  Deck "1" - -> "1" PlayingCardCollection : -playingCardCollection
  PlayingCardCollection  <|- - Hand
  Player "1" - -> "1" Hand : -hand
  PlayingCardCollection "1" - -> "0..*" PlayingCard : -playingCards

  class CardTable{
    +constructor(numberOfPlayers : number)
    -compareHands(dealer : Player, player : Player) : Player
    -deal() : PalyingCard
    -playOut(dealer : Player, player : Player)
    +playRounds(numberOfRounds : number)
  }

  class Deck{
    +«get» count : number
    +constructor()
    +add(playingCards: PlayingCard[])
    +deal() : PlayingCard
    +shuffle()
  }

  class Hand{
    +constructor(playingCards : PlayingCard[] = [])
    +copy() : Hand
    +discardAll() : PlayingCard[]
    +toString() : string
    +valueOf() : number
  }

  class Player{
      -nickname : string
      -standValue : number
      +«get» canHit : boolean
      +«get» isBusted : boolean
      +«get» isNaturalWinner : boolean
      +«get» nickname : string
      +constructor(nickname : string, standValue : number = 14, hand : Hand = new Hand())
      +addToHand(playingCard : PlayingCard)
      +copy() : Player
      +discardHand() : PlayingCard[]
      +toString() : string
      +valueOf() : number
  }

  class PlayingCard<<immutable>>{
      +{static} ranks : number[]
      +{static} suits : string[]
      +rank : number
      +suit : string
      +constructor(rank : number, suit : string)
      +toString() : string
      +valueOf() : number
  }

  class PlayingCardCollection{
      +constructor(rank : number, suit: string)
      +add(...playingCards : ...PlayingCard)
      +copy() : PlayingCardCollection
      +copyTo(array : Array, index : number = -1)
      +removeAll() : PlayingCard[]
      +removeAt(index : number, count : number = 1) : PlayingCard[]
      +shuffle()
      +toString() : string
      +valueOf() : number
      +*[Symbol.iterator]() : PlayingCard
  }
@enduml

PlantUML version 1.2022.6beta5(Unknown compile time)
(GPL source distribution)
Java Runtime: Java(TM) SE Runtime Environment
JVM: Java HotSpot(TM) 64-Bit Server VM
Default Encoding: UTF-8
Language: en
Country: US
--></g></svg>