<?xml version="1.0" encoding="UTF-8" standalone="no"?><svg xmlns="http://www.w3.org/2000/svg" xmlns:xlink="http://www.w3.org/1999/xlink" contentStyleType="text/css" height="231px" preserveAspectRatio="none" style="width:490px;height:231px;background:#FFFFFF;" version="1.1" viewBox="0 0 490 231" width="490px" zoomAndPan="magnify"><defs/><g><!--MD5=[e2149c685ad626b88c35680638ab78eb]
class PlayingCardCollection--><g id="elem_PlayingCardCollection"><rect codeLine="1" fill="#F1F1F1" height="210.9688" id="PlayingCardCollection" rx="2.5" ry="2.5" style="stroke:#181818;stroke-width:0.5;" width="469" x="7" y="7"/><ellipse cx="158.75" cy="23" fill="#ADD1B2" rx="11" ry="11" style="stroke:#181818;stroke-width:1.0;"/><path d="M161.0938,18.6719 C160.1563,18.2344 159.5625,18.0938 158.6875,18.0938 C156.0625,18.0938 154.0625,20.1719 154.0625,22.8906 L154.0625,24.0156 C154.0625,26.5938 156.1719,28.4844 159.0625,28.4844 C160.2813,28.4844 161.4375,28.1875 162.1875,27.6406 C162.7656,27.2344 163.0938,26.7813 163.0938,26.3906 C163.0938,25.9375 162.7031,25.5469 162.2344,25.5469 C162.0156,25.5469 161.8125,25.625 161.625,25.8125 C161.1719,26.2969 161.1719,26.2969 160.9844,26.3906 C160.5625,26.6563 159.875,26.7813 159.1094,26.7813 C157.0625,26.7813 155.7656,25.6875 155.7656,23.9844 L155.7656,22.8906 C155.7656,21.1094 157.0156,19.7969 158.75,19.7969 C159.3281,19.7969 159.9375,19.9531 160.4063,20.2031 C160.8906,20.4844 161.0625,20.7031 161.1563,21.1094 C161.2188,21.5156 161.25,21.6406 161.3906,21.7656 C161.5313,21.9063 161.7656,22.0156 161.9844,22.0156 C162.25,22.0156 162.5156,21.875 162.6875,21.6563 C162.7969,21.5 162.8281,21.3125 162.8281,20.8906 L162.8281,19.4688 C162.8281,19.0313 162.8125,18.9063 162.7188,18.75 C162.5625,18.4844 162.2813,18.3438 161.9844,18.3438 C161.6875,18.3438 161.4844,18.4375 161.2656,18.75 L161.0938,18.6719 Z " fill="#000000"/><text fill="#000000" font-family="sans-serif" font-size="14" lengthAdjust="spacing" textLength="157" x="179.25" y="27.8467">PlayingCardCollection</text><line style="stroke:#181818;stroke-width:0.5;" x1="8" x2="475" y1="39" y2="39"/><line style="stroke:#181818;stroke-width:0.5;" x1="8" x2="475" y1="47" y2="47"/><ellipse cx="18" cy="60.6484" fill="#84BE84" rx="3" ry="3" style="stroke:#038048;stroke-width:1.0;"/><text fill="#000000" font-family="sans-serif" font-size="14" lengthAdjust="spacing" textLength="322" x="27" y="63.9951">constructor(playingCards : PlayingCard[] = [])</text><ellipse cx="18" cy="76.9453" fill="#84BE84" rx="3" ry="3" style="stroke:#038048;stroke-width:1.0;"/><text fill="#000000" font-family="sans-serif" font-size="14" lengthAdjust="spacing" textLength="255" x="27" y="80.292">add(...playingCards : ...PlayingCard)</text><ellipse cx="18" cy="93.2422" fill="#84BE84" rx="3" ry="3" style="stroke:#038048;stroke-width:1.0;"/><text fill="#000000" font-family="sans-serif" font-size="14" lengthAdjust="spacing" textLength="215" x="27" y="96.5889">copy() : PlayingCardCollection</text><ellipse cx="18" cy="109.5391" fill="#84BE84" rx="3" ry="3" style="stroke:#038048;stroke-width:1.0;"/><text fill="#000000" font-family="sans-serif" font-size="14" lengthAdjust="spacing" textLength="300" x="27" y="112.8857">copyTo(array : Array, index : number = -1)</text><ellipse cx="18" cy="125.8359" fill="#84BE84" rx="3" ry="3" style="stroke:#038048;stroke-width:1.0;"/><text fill="#000000" font-family="sans-serif" font-size="14" lengthAdjust="spacing" textLength="190" x="27" y="129.1826">removeAll() : PlayingCard[]</text><ellipse cx="18" cy="142.1328" fill="#84BE84" rx="3" ry="3" style="stroke:#038048;stroke-width:1.0;"/><text fill="#000000" font-family="sans-serif" font-size="14" lengthAdjust="spacing" textLength="443" x="27" y="145.4795">removeAt(index : number, count : number = 1) : PlayingCard[]</text><ellipse cx="18" cy="158.4297" fill="#84BE84" rx="3" ry="3" style="stroke:#038048;stroke-width:1.0;"/><text fill="#000000" font-family="sans-serif" font-size="14" lengthAdjust="spacing" textLength="59" x="27" y="161.7764">shuffle()</text><ellipse cx="18" cy="174.7266" fill="#84BE84" rx="3" ry="3" style="stroke:#038048;stroke-width:1.0;"/><text fill="#000000" font-family="sans-serif" font-size="14" lengthAdjust="spacing" textLength="125" x="27" y="178.0732">toString() : string</text><ellipse cx="18" cy="191.0234" fill="#84BE84" rx="3" ry="3" style="stroke:#038048;stroke-width:1.0;"/><text fill="#000000" font-family="sans-serif" font-size="14" lengthAdjust="spacing" textLength="133" x="27" y="194.3701">valueOf() : number</text><ellipse cx="18" cy="207.3203" fill="#84BE84" rx="3" ry="3" style="stroke:#038048;stroke-width:1.0;"/><text fill="#000000" font-family="sans-serif" font-size="14" lengthAdjust="spacing" textLength="239" x="27" y="210.667">*[Symbol.iterator]() : PlayingCard</text></g><!--MD5=[4c3b5015feb0b3ec20eebe3e271eba5c]
@startuml
class PlayingCardCollection{
      +constructor(playingCards : PlayingCard[] = [])
      +add(...playingCards : ...PlayingCard)
      +copy() : PlayingCardCollection
      +copyTo(array : Array, index : number = -1)
      +removeAll() : PlayingCard[]
      +removeAt(index : number, count : number = 1) : PlayingCard[]
      +shuffle()
      +toString() : string
      +valueOf() : number
      +*[Symbol.iterator]() : PlayingCard
  }
@enduml

PlantUML version 1.2022.7beta11(Unknown compile time)
(GPL source distribution)
Java Runtime: Java(TM) SE Runtime Environment
JVM: Java HotSpot(TM) 64-Bit Server VM
Default Encoding: UTF-8
Language: en
Country: US
--></g></svg>