<?xml version="1.0" encoding="UTF-8" standalone="no"?>
<!DOCTYPE svg PUBLIC "-//W3C//DTD SVG 1.1//EN"
 "http://www.w3.org/Graphics/SVG/1.1/DTD/svg11.dtd">
<!-- Generated by graphviz version 2.38.0 (20140413.2041)
 -->
<!-- Title: dependency&#45;cruiser output Pages: 1 -->
<svg width="532pt" height="120pt"
 viewBox="0.00 0.00 532.00 120.00" xmlns="http://www.w3.org/2000/svg" xmlns:xlink="http://www.w3.org/1999/xlink">
<g id="graph0" class="graph" transform="scale(1 1) rotate(0) translate(4 116)">
<title>dependency&#45;cruiser output</title>
<g id="clust1" class="cluster"><title>cluster_src</title>
<path fill="#ffffff" stroke="black" stroke-width="2" d="M20,-8C20,-8 504,-8 504,-8 510,-8 516,-14 516,-20 516,-20 516,-92 516,-92 516,-98 510,-104 504,-104 504,-104 20,-104 20,-104 14,-104 8,-98 8,-92 8,-92 8,-20 8,-20 8,-14 14,-8 20,-8"/>
<text text-anchor="middle" x="262" y="-92.8" font-family="Helvetica,sans-Serif" font-weight="bold" font-size="9.00">src</text>
</g>
<!-- src/CardTable.js -->
<g id="node1" class="node"><title>src/CardTable.js</title>
<g id="a_node1"><a xlink:href="src/CardTable.js" xlink:title="CardTable.js">
<path fill="#ffffcc" stroke="black" d="M147,-64C147,-64 89,-64 89,-64 86,-64 83,-61 83,-58 83,-58 83,-52 83,-52 83,-49 86,-46 89,-46 89,-46 147,-46 147,-46 150,-46 153,-49 153,-52 153,-52 153,-58 153,-58 153,-61 150,-64 147,-64"/>
<text text-anchor="middle" x="118" y="-52.8" font-family="Helvetica,sans-Serif" font-size="9.00">CardTable.js</text>
</a>
</g>
</g>
<!-- src/Deck.js -->
<g id="node2" class="node"><title>src/Deck.js</title>
<g id="a_node2"><a xlink:href="src/Deck.js" xlink:title="Deck.js">
<path fill="#ffffcc" stroke="black" d="M281,-34C281,-34 239,-34 239,-34 236,-34 233,-31 233,-28 233,-28 233,-22 233,-22 233,-19 236,-16 239,-16 239,-16 281,-16 281,-16 284,-16 287,-19 287,-22 287,-22 287,-28 287,-28 287,-31 284,-34 281,-34"/>
<text text-anchor="middle" x="260" y="-22.8" font-family="Helvetica,sans-Serif" font-size="9.00">Deck.js</text>
</a>
</g>
</g>
<!-- src/CardTable.js&#45;&gt;src/Deck.js -->
<g id="edge1" class="edge"><title>src/CardTable.js&#45;&gt;src/Deck.js</title>
<path fill="none" stroke="#999999" d="M145.155,-45.8921C151.891,-43.7567 159.169,-41.6314 166,-40 186.356,-35.1387 209.6,-31.3893 227.758,-28.855"/>
<polygon fill="#999999" stroke="#999999" points="228.021,-30.5853 232.738,-28.1725 227.546,-27.1177 228.021,-30.5853"/>
</g>
<!-- src/Player.js -->
<g id="node3" class="node"><title>src/Player.js</title>
<g id="a_node3"><a xlink:href="src/Player.js" xlink:title="Player.js">
<path fill="#ffffcc" stroke="black" d="M214,-64C214,-64 172,-64 172,-64 169,-64 166,-61 166,-58 166,-58 166,-52 166,-52 166,-49 169,-46 172,-46 172,-46 214,-46 214,-46 217,-46 220,-49 220,-52 220,-52 220,-58 220,-58 220,-61 217,-64 214,-64"/>
<text text-anchor="middle" x="193" y="-52.8" font-family="Helvetica,sans-Serif" font-size="9.00">Player.js</text>
</a>
</g>
</g>
<!-- src/CardTable.js&#45;&gt;src/Player.js -->
<g id="edge2" class="edge"><title>src/CardTable.js&#45;&gt;src/Player.js</title>
<path fill="none" stroke="#999999" d="M153.362,-55C155.692,-55 158.034,-55 160.349,-55"/>
<polygon fill="#999999" stroke="#999999" points="160.684,-56.7501 165.684,-55 160.684,-53.2501 160.684,-56.7501"/>
</g>
<!-- src/PlayingCardCollection.js -->
<g id="node4" class="node"><title>src/PlayingCardCollection.js</title>
<g id="a_node4"><a xlink:href="src/PlayingCardCollection.js" xlink:title="PlayingCardCollection.js">
<path fill="#ffffcc" stroke="black" d="M412,-62C412,-62 306,-62 306,-62 303,-62 300,-59 300,-56 300,-56 300,-50 300,-50 300,-47 303,-44 306,-44 306,-44 412,-44 412,-44 415,-44 418,-47 418,-50 418,-50 418,-56 418,-56 418,-59 415,-62 412,-62"/>
<text text-anchor="middle" x="359" y="-50.8" font-family="Helvetica,sans-Serif" font-size="9.00">PlayingCardCollection.js</text>
</a>
</g>
</g>
<!-- src/CardTable.js&#45;&gt;src/PlayingCardCollection.js -->
<g id="edge3" class="edge"><title>src/CardTable.js&#45;&gt;src/PlayingCardCollection.js</title>
<path fill="none" stroke="#999999" d="M142.566,-64.088C149.954,-66.5094 158.214,-68.7876 166,-70 219.137,-78.2738 233.593,-76.3047 287,-70 298.571,-68.6341 310.986,-66.0573 322.148,-63.3152"/>
<polygon fill="#999999" stroke="#999999" points="322.759,-64.9659 327.18,-62.0475 321.904,-61.572 322.759,-64.9659"/>
</g>
<!-- src/Deck.js&#45;&gt;src/PlayingCardCollection.js -->
<g id="edge5" class="edge"><title>src/Deck.js&#45;&gt;src/PlayingCardCollection.js</title>
<path fill="none" stroke="#999999" d="M287.25,-32.5772C297.854,-35.6382 310.27,-39.2223 321.715,-42.5261"/>
<polygon fill="#999999" stroke="#999999" points="321.264,-44.2171 326.553,-43.9225 322.234,-40.8544 321.264,-44.2171"/>
</g>
<!-- src/PlayingCard.js -->
<g id="node5" class="node"><title>src/PlayingCard.js</title>
<g id="a_node5"><a xlink:href="src/PlayingCard.js" xlink:title="PlayingCard.js">
<path fill="#ffffcc" stroke="black" d="M502,-47C502,-47 437,-47 437,-47 434,-47 431,-44 431,-41 431,-41 431,-35 431,-35 431,-32 434,-29 437,-29 437,-29 502,-29 502,-29 505,-29 508,-32 508,-35 508,-35 508,-41 508,-41 508,-44 505,-47 502,-47"/>
<text text-anchor="middle" x="469.5" y="-35.8" font-family="Helvetica,sans-Serif" font-size="9.00">PlayingCard.js</text>
</a>
</g>
</g>
<!-- src/Deck.js&#45;&gt;src/PlayingCard.js -->
<g id="edge4" class="edge"><title>src/Deck.js&#45;&gt;src/PlayingCard.js</title>
<path fill="none" stroke="#999999" d="M287.28,-26.6465C322.105,-28.8283 383.987,-32.7052 425.626,-35.3139"/>
<polygon fill="#999999" stroke="#999999" points="425.754,-37.0753 430.854,-35.6414 425.973,-33.5821 425.754,-37.0753"/>
</g>
<!-- src/Hand.js -->
<g id="node6" class="node"><title>src/Hand.js</title>
<g id="a_node6"><a xlink:href="src/Hand.js" xlink:title="Hand.js">
<path fill="#ffffcc" stroke="black" d="M281,-64C281,-64 239,-64 239,-64 236,-64 233,-61 233,-58 233,-58 233,-52 233,-52 233,-49 236,-46 239,-46 239,-46 281,-46 281,-46 284,-46 287,-49 287,-52 287,-52 287,-58 287,-58 287,-61 284,-64 281,-64"/>
<text text-anchor="middle" x="260" y="-52.8" font-family="Helvetica,sans-Serif" font-size="9.00">Hand.js</text>
</a>
</g>
</g>
<!-- src/Player.js&#45;&gt;src/Hand.js -->
<g id="edge7" class="edge"><title>src/Player.js&#45;&gt;src/Hand.js</title>
<path fill="none" stroke="#999999" d="M220.063,-55C222.58,-55 225.15,-55 227.71,-55"/>
<polygon fill="#999999" stroke="#999999" points="227.931,-56.7501 232.931,-55 227.931,-53.2501 227.931,-56.7501"/>
</g>
<!-- src/PlayingCardCollection.js&#45;&gt;src/PlayingCard.js -->
<g id="edge8" class="edge"><title>src/PlayingCardCollection.js&#45;&gt;src/PlayingCard.js</title>
<path fill="none" stroke="#999999" d="M418.062,-44.973C420.634,-44.6174 423.196,-44.2633 425.722,-43.914"/>
<polygon fill="#999999" stroke="#999999" points="426.139,-45.6232 430.852,-43.2048 425.659,-42.1561 426.139,-45.6232"/>
</g>
<!-- src/Hand.js&#45;&gt;src/PlayingCardCollection.js -->
<g id="edge6" class="edge"><title>src/Hand.js&#45;&gt;src/PlayingCardCollection.js</title>
<path fill="none" stroke="#999999" d="M287.25,-54.4588C289.582,-54.4107 292.001,-54.3608 294.479,-54.3097"/>
<polygon fill="#999999" stroke="#999999" points="294.674,-56.0562 299.636,-54.2034 294.601,-52.5569 294.674,-56.0562"/>
</g>
<!-- src/app.js -->
<g id="node7" class="node"><title>src/app.js</title>
<g id="a_node7"><a xlink:href="src/app.js" xlink:title="app.js">
<path fill="#ffffcc" stroke="black" d="M64,-64C64,-64 22,-64 22,-64 19,-64 16,-61 16,-58 16,-58 16,-52 16,-52 16,-49 19,-46 22,-46 22,-46 64,-46 64,-46 67,-46 70,-49 70,-52 70,-52 70,-58 70,-58 70,-61 67,-64 64,-64"/>
<text text-anchor="middle" x="43" y="-52.8" font-family="Helvetica,sans-Serif" font-size="9.00">app.js</text>
</a>
</g>
</g>
<!-- src/app.js&#45;&gt;src/CardTable.js -->
<g id="edge9" class="edge"><title>src/app.js&#45;&gt;src/CardTable.js</title>
<path fill="none" stroke="#999999" d="M70.3547,-55C72.7795,-55 75.2693,-55 77.7763,-55"/>
<polygon fill="#999999" stroke="#999999" points="77.9312,-56.7501 82.9311,-55 77.9311,-53.2501 77.9312,-56.7501"/>
</g>
</g>
</svg>
