<?xml version="1.0" encoding="UTF-8" standalone="no"?><svg xmlns="http://www.w3.org/2000/svg" xmlns:xlink="http://www.w3.org/1999/xlink" contentStyleType="text/css" height="150px" preserveAspectRatio="none" style="width:433px;height:150px;background:#FFFFFF;" version="1.1" viewBox="0 0 433 150" width="433px" zoomAndPan="magnify"><defs/><g><!--MD5=[8b60166c765e9dfc5d488a49c3952d3f]
class CardTable--><g id="elem_CardTable"><rect codeLine="1" fill="#F1F1F1" height="129.4844" id="CardTable" rx="2.5" ry="2.5" style="stroke:#181818;stroke-width:0.5;" width="412" x="7" y="7"/><ellipse cx="172.25" cy="23" fill="#ADD1B2" rx="11" ry="11" style="stroke:#181818;stroke-width:1.0;"/><path d="M174.5938,18.6719 C173.6563,18.2344 173.0625,18.0938 172.1875,18.0938 C169.5625,18.0938 167.5625,20.1719 167.5625,22.8906 L167.5625,24.0156 C167.5625,26.5938 169.6719,28.4844 172.5625,28.4844 C173.7813,28.4844 174.9375,28.1875 175.6875,27.6406 C176.2656,27.2344 176.5938,26.7813 176.5938,26.3906 C176.5938,25.9375 176.2031,25.5469 175.7344,25.5469 C175.5156,25.5469 175.3125,25.625 175.125,25.8125 C174.6719,26.2969 174.6719,26.2969 174.4844,26.3906 C174.0625,26.6563 173.375,26.7813 172.6094,26.7813 C170.5625,26.7813 169.2656,25.6875 169.2656,23.9844 L169.2656,22.8906 C169.2656,21.1094 170.5156,19.7969 172.25,19.7969 C172.8281,19.7969 173.4375,19.9531 173.9063,20.2031 C174.3906,20.4844 174.5625,20.7031 174.6563,21.1094 C174.7188,21.5156 174.75,21.6406 174.8906,21.7656 C175.0313,21.9063 175.2656,22.0156 175.4844,22.0156 C175.75,22.0156 176.0156,21.875 176.1875,21.6563 C176.2969,21.5 176.3281,21.3125 176.3281,20.8906 L176.3281,19.4688 C176.3281,19.0313 176.3125,18.9063 176.2188,18.75 C176.0625,18.4844 175.7813,18.3438 175.4844,18.3438 C175.1875,18.3438 174.9844,18.4375 174.7656,18.75 L174.5938,18.6719 Z " fill="#000000"/><text fill="#000000" font-family="sans-serif" font-size="14" lengthAdjust="spacing" textLength="73" x="192.75" y="27.8467">CardTable</text><line style="stroke:#181818;stroke-width:0.5;" x1="8" x2="418" y1="39" y2="39"/><line style="stroke:#181818;stroke-width:0.5;" x1="8" x2="418" y1="47" y2="47"/><ellipse cx="18" cy="60.6484" fill="#84BE84" rx="3" ry="3" style="stroke:#038048;stroke-width:1.0;"/><text fill="#000000" font-family="sans-serif" font-size="14" lengthAdjust="spacing" textLength="287" x="27" y="63.9951">constructor(numberOfPlayers : number)</text><rect fill="#F24D5C" height="6" style="stroke:#C82930;stroke-width:1.0;" width="6" x="15" y="73.9453"/><text fill="#000000" font-family="sans-serif" font-size="14" lengthAdjust="spacing" textLength="386" x="27" y="80.292">compareHands(dealer : Player, player : Player) : Player</text><rect fill="#F24D5C" height="6" style="stroke:#C82930;stroke-width:1.0;" width="6" x="15" y="90.2422"/><text fill="#000000" font-family="sans-serif" font-size="14" lengthAdjust="spacing" textLength="137" x="27" y="96.5889">deal() : PalyingCard</text><rect fill="#F24D5C" height="6" style="stroke:#C82930;stroke-width:1.0;" width="6" x="15" y="106.5391"/><text fill="#000000" font-family="sans-serif" font-size="14" lengthAdjust="spacing" textLength="278" x="27" y="112.8857">playOut(dealer : Player, player : Player)</text><ellipse cx="18" cy="125.8359" fill="#84BE84" rx="3" ry="3" style="stroke:#038048;stroke-width:1.0;"/><text fill="#000000" font-family="sans-serif" font-size="14" lengthAdjust="spacing" textLength="356" x="27" y="129.1826">playRounds(numberOfRounds : number) : object[]</text></g><!--MD5=[7404573c30e7118602f1bfc7e2dce13e]
@startuml
class CardTable{
    +constructor(numberOfPlayers : number)
    -compareHands(dealer : Player, player : Player) : Player
    -deal() : PalyingCard
    -playOut(dealer : Player, player : Player)
    +playRounds(numberOfRounds : number) : object[]
  }
@enduml

PlantUML version 1.2022.7beta11(Unknown compile time)
(GPL source distribution)
Java Runtime: Java(TM) SE Runtime Environment
JVM: Java HotSpot(TM) 64-Bit Server VM
Default Encoding: UTF-8
Language: en
Country: US
--></g></svg>