<?xml version="1.0" encoding="UTF-8" standalone="no"?><svg xmlns="http://www.w3.org/2000/svg" xmlns:xlink="http://www.w3.org/1999/xlink" contentStyleType="text/css" height="251px" preserveAspectRatio="none" style="width:362px;height:251px;background:#FFFFFF;" version="1.1" viewBox="0 0 362 251" width="362px" zoomAndPan="magnify"><defs/><g><!--MD5=[e2149c685ad626b88c35680638ab78eb]
class PlayingCardCollection--><g id="elem_PlayingCardCollection"><rect fill="#F1F1F1" height="48" id="PlayingCardCollection" rx="2.5" ry="2.5" style="stroke:#181818;stroke-width:0.5;" width="189" x="86.5" y="7"/><ellipse cx="101.5" cy="23" fill="#ADD1B2" rx="11" ry="11" style="stroke:#181818;stroke-width:1.0;"/><path d="M103.8438,18.6719 C102.9063,18.2344 102.3125,18.0938 101.4375,18.0938 C98.8125,18.0938 96.8125,20.1719 96.8125,22.8906 L96.8125,24.0156 C96.8125,26.5938 98.9219,28.4844 101.8125,28.4844 C103.0313,28.4844 104.1875,28.1875 104.9375,27.6406 C105.5156,27.2344 105.8438,26.7813 105.8438,26.3906 C105.8438,25.9375 105.4531,25.5469 104.9844,25.5469 C104.7656,25.5469 104.5625,25.625 104.375,25.8125 C103.9219,26.2969 103.9219,26.2969 103.7344,26.3906 C103.3125,26.6563 102.625,26.7813 101.8594,26.7813 C99.8125,26.7813 98.5156,25.6875 98.5156,23.9844 L98.5156,22.8906 C98.5156,21.1094 99.7656,19.7969 101.5,19.7969 C102.0781,19.7969 102.6875,19.9531 103.1563,20.2031 C103.6406,20.4844 103.8125,20.7031 103.9063,21.1094 C103.9688,21.5156 104,21.6406 104.1406,21.7656 C104.2813,21.9063 104.5156,22.0156 104.7344,22.0156 C105,22.0156 105.2656,21.875 105.4375,21.6563 C105.5469,21.5 105.5781,21.3125 105.5781,20.8906 L105.5781,19.4688 C105.5781,19.0313 105.5625,18.9063 105.4688,18.75 C105.3125,18.4844 105.0313,18.3438 104.7344,18.3438 C104.4375,18.3438 104.2344,18.4375 104.0156,18.75 L103.8438,18.6719 Z " fill="#000000"/><text fill="#000000" font-family="sans-serif" font-size="14" lengthAdjust="spacing" textLength="157" x="115.5" y="27.8467">PlayingCardCollection</text><line style="stroke:#181818;stroke-width:0.5;" x1="87.5" x2="274.5" y1="39" y2="39"/><line style="stroke:#181818;stroke-width:0.5;" x1="87.5" x2="274.5" y1="47" y2="47"/></g><!--MD5=[b3a980551af4fb5504d75634056fd54d]
class Hand--><g id="elem_Hand"><rect codeLine="2" fill="#F1F1F1" height="129.4844" id="Hand" rx="2.5" ry="2.5" style="stroke:#181818;stroke-width:0.5;" width="348" x="7" y="115"/><ellipse cx="158.75" cy="131" fill="#ADD1B2" rx="11" ry="11" style="stroke:#181818;stroke-width:1.0;"/><path d="M161.0938,126.6719 C160.1563,126.2344 159.5625,126.0938 158.6875,126.0938 C156.0625,126.0938 154.0625,128.1719 154.0625,130.8906 L154.0625,132.0156 C154.0625,134.5938 156.1719,136.4844 159.0625,136.4844 C160.2813,136.4844 161.4375,136.1875 162.1875,135.6406 C162.7656,135.2344 163.0938,134.7813 163.0938,134.3906 C163.0938,133.9375 162.7031,133.5469 162.2344,133.5469 C162.0156,133.5469 161.8125,133.625 161.625,133.8125 C161.1719,134.2969 161.1719,134.2969 160.9844,134.3906 C160.5625,134.6563 159.875,134.7813 159.1094,134.7813 C157.0625,134.7813 155.7656,133.6875 155.7656,131.9844 L155.7656,130.8906 C155.7656,129.1094 157.0156,127.7969 158.75,127.7969 C159.3281,127.7969 159.9375,127.9531 160.4063,128.2031 C160.8906,128.4844 161.0625,128.7031 161.1563,129.1094 C161.2188,129.5156 161.25,129.6406 161.3906,129.7656 C161.5313,129.9063 161.7656,130.0156 161.9844,130.0156 C162.25,130.0156 162.5156,129.875 162.6875,129.6563 C162.7969,129.5 162.8281,129.3125 162.8281,128.8906 L162.8281,127.4688 C162.8281,127.0313 162.8125,126.9063 162.7188,126.75 C162.5625,126.4844 162.2813,126.3438 161.9844,126.3438 C161.6875,126.3438 161.4844,126.4375 161.2656,126.75 L161.0938,126.6719 Z " fill="#000000"/><text fill="#000000" font-family="sans-serif" font-size="14" lengthAdjust="spacing" textLength="36" x="179.25" y="135.8467">Hand</text><line style="stroke:#181818;stroke-width:0.5;" x1="8" x2="354" y1="147" y2="147"/><line style="stroke:#181818;stroke-width:0.5;" x1="8" x2="354" y1="155" y2="155"/><ellipse cx="18" cy="166" fill="#84BE84" rx="3" ry="3" style="stroke:#038048;stroke-width:1.0;"/><text fill="#000000" font-family="sans-serif" font-size="14" lengthAdjust="spacing" textLength="322" x="27" y="171.9951">constructor(playingCards : PlayingCard[] = [])</text><ellipse cx="18" cy="182.2969" fill="#84BE84" rx="3" ry="3" style="stroke:#038048;stroke-width:1.0;"/><text fill="#000000" font-family="sans-serif" font-size="14" lengthAdjust="spacing" textLength="94" x="27" y="188.292">copy() : Hand</text><ellipse cx="18" cy="198.5938" fill="#84BE84" rx="3" ry="3" style="stroke:#038048;stroke-width:1.0;"/><text fill="#000000" font-family="sans-serif" font-size="14" lengthAdjust="spacing" textLength="186" x="27" y="204.5889">discardAll() : PlayingCard[]</text><ellipse cx="18" cy="214.8906" fill="#84BE84" rx="3" ry="3" style="stroke:#038048;stroke-width:1.0;"/><text fill="#000000" font-family="sans-serif" font-size="14" lengthAdjust="spacing" textLength="125" x="27" y="220.8857">toString() : string</text><ellipse cx="18" cy="231.1875" fill="#84BE84" rx="3" ry="3" style="stroke:#038048;stroke-width:1.0;"/><text fill="#000000" font-family="sans-serif" font-size="14" lengthAdjust="spacing" textLength="133" x="27" y="237.1826">valueOf() : number</text></g><!--MD5=[8c18bd38c308b95d2e70729e1d2126af]
reverse link PlayingCardCollection to Hand--><g id="link_PlayingCardCollection_Hand"><path codeLine="1" d="M181,75.599 C181,87.951 181,101.655 181,114.929 " fill="none" id="PlayingCardCollection-backto-Hand" style="stroke:#181818;stroke-width:1.0;"/><polygon fill="none" points="174,75.213,181,55.213,188,75.213,174,75.213" style="stroke:#181818;stroke-width:1.0;"/></g><!--MD5=[4f3399756da5b70cfd7a2984cc27837c]
@startuml
PlayingCardCollection <|- - Hand
  class Hand{
    +constructor(playingCards : PlayingCard[] = [])
    +copy() : Hand
    +discardAll() : PlayingCard[]
    +toString() : string
    +valueOf() : number
  }
@enduml

PlantUML version 1.2022.6beta5(Unknown compile time)
(GPL source distribution)
Java Runtime: Java(TM) SE Runtime Environment
JVM: Java HotSpot(TM) 64-Bit Server VM
Default Encoding: UTF-8
Language: en
Country: US
--></g></svg>