<?xml version="1.0" encoding="UTF-8" standalone="no"?><svg xmlns="http://www.w3.org/2000/svg" xmlns:xlink="http://www.w3.org/1999/xlink" contentStyleType="text/css" height="694px" preserveAspectRatio="none" style="width:888px;height:694px;background:#FFFFFF;" version="1.1" viewBox="0 0 888 694" width="888px" zoomAndPan="magnify"><defs/><g><!--MD5=[8b60166c765e9dfc5d488a49c3952d3f]
class CardTable--><g id="elem_CardTable"><rect codeLine="8" fill="#F1F1F1" height="129.4844" id="CardTable" rx="2.5" ry="2.5" style="stroke:#181818;stroke-width:0.5;" width="404" x="183.5" y="7"/><ellipse cx="344.75" cy="23" fill="#ADD1B2" rx="11" ry="11" style="stroke:#181818;stroke-width:1.0;"/><path d="M347.0938,18.6719 C346.1563,18.2344 345.5625,18.0938 344.6875,18.0938 C342.0625,18.0938 340.0625,20.1719 340.0625,22.8906 L340.0625,24.0156 C340.0625,26.5938 342.1719,28.4844 345.0625,28.4844 C346.2813,28.4844 347.4375,28.1875 348.1875,27.6406 C348.7656,27.2344 349.0938,26.7813 349.0938,26.3906 C349.0938,25.9375 348.7031,25.5469 348.2344,25.5469 C348.0156,25.5469 347.8125,25.625 347.625,25.8125 C347.1719,26.2969 347.1719,26.2969 346.9844,26.3906 C346.5625,26.6563 345.875,26.7813 345.1094,26.7813 C343.0625,26.7813 341.7656,25.6875 341.7656,23.9844 L341.7656,22.8906 C341.7656,21.1094 343.0156,19.7969 344.75,19.7969 C345.3281,19.7969 345.9375,19.9531 346.4063,20.2031 C346.8906,20.4844 347.0625,20.7031 347.1563,21.1094 C347.2188,21.5156 347.25,21.6406 347.3906,21.7656 C347.5313,21.9063 347.7656,22.0156 347.9844,22.0156 C348.25,22.0156 348.5156,21.875 348.6875,21.6563 C348.7969,21.5 348.8281,21.3125 348.8281,20.8906 L348.8281,19.4688 C348.8281,19.0313 348.8125,18.9063 348.7188,18.75 C348.5625,18.4844 348.2813,18.3438 347.9844,18.3438 C347.6875,18.3438 347.4844,18.4375 347.2656,18.75 L347.0938,18.6719 Z " fill="#000000"/><text fill="#000000" font-family="sans-serif" font-size="14" lengthAdjust="spacing" textLength="73" x="365.25" y="27.8467">CardTable</text><line style="stroke:#181818;stroke-width:0.5;" x1="184.5" x2="586.5" y1="39" y2="39"/><line style="stroke:#181818;stroke-width:0.5;" x1="184.5" x2="586.5" y1="47" y2="47"/><ellipse cx="194.5" cy="58" fill="#84BE84" rx="3" ry="3" style="stroke:#038048;stroke-width:1.0;"/><text fill="#000000" font-family="sans-serif" font-size="14" lengthAdjust="spacing" textLength="283" x="203.5" y="63.9951">constructor(numberOfPlayers: number)</text><rect fill="#F24D5C" height="6" style="stroke:#C82930;stroke-width:1.0;" width="6" x="191.5" y="71.2969"/><text fill="#000000" font-family="sans-serif" font-size="14" lengthAdjust="spacing" textLength="378" x="203.5" y="80.292">compareHands(dealer: Player, player: Player) : Player</text><rect fill="#F24D5C" height="6" style="stroke:#C82930;stroke-width:1.0;" width="6" x="191.5" y="87.5938"/><text fill="#000000" font-family="sans-serif" font-size="14" lengthAdjust="spacing" textLength="137" x="203.5" y="96.5889">deal() : PlayingCard</text><rect fill="#F24D5C" height="6" style="stroke:#C82930;stroke-width:1.0;" width="6" x="191.5" y="103.8906"/><text fill="#000000" font-family="sans-serif" font-size="14" lengthAdjust="spacing" textLength="270" x="203.5" y="112.8857">playOut(dealer: Player, player: Player)</text><ellipse cx="194.5" cy="123.1875" fill="#84BE84" rx="3" ry="3" style="stroke:#038048;stroke-width:1.0;"/><text fill="#000000" font-family="sans-serif" font-size="14" lengthAdjust="spacing" textLength="286" x="203.5" y="129.1826">playRounds(numberOfRounds : number)</text></g><!--MD5=[30299a58ba6b78debaaed5ddbb42f29a]
class Deck--><g id="elem_Deck"><rect codeLine="16" fill="#F1F1F1" height="129.4844" id="Deck" rx="2.5" ry="2.5" style="stroke:#181818;stroke-width:0.5;" width="257" x="7" y="262"/><ellipse cx="112.75" cy="278" fill="#ADD1B2" rx="11" ry="11" style="stroke:#181818;stroke-width:1.0;"/><path d="M115.0938,273.6719 C114.1563,273.2344 113.5625,273.0938 112.6875,273.0938 C110.0625,273.0938 108.0625,275.1719 108.0625,277.8906 L108.0625,279.0156 C108.0625,281.5938 110.1719,283.4844 113.0625,283.4844 C114.2813,283.4844 115.4375,283.1875 116.1875,282.6406 C116.7656,282.2344 117.0938,281.7813 117.0938,281.3906 C117.0938,280.9375 116.7031,280.5469 116.2344,280.5469 C116.0156,280.5469 115.8125,280.625 115.625,280.8125 C115.1719,281.2969 115.1719,281.2969 114.9844,281.3906 C114.5625,281.6563 113.875,281.7813 113.1094,281.7813 C111.0625,281.7813 109.7656,280.6875 109.7656,278.9844 L109.7656,277.8906 C109.7656,276.1094 111.0156,274.7969 112.75,274.7969 C113.3281,274.7969 113.9375,274.9531 114.4063,275.2031 C114.8906,275.4844 115.0625,275.7031 115.1563,276.1094 C115.2188,276.5156 115.25,276.6406 115.3906,276.7656 C115.5313,276.9063 115.7656,277.0156 115.9844,277.0156 C116.25,277.0156 116.5156,276.875 116.6875,276.6563 C116.7969,276.5 116.8281,276.3125 116.8281,275.8906 L116.8281,274.4688 C116.8281,274.0313 116.8125,273.9063 116.7188,273.75 C116.5625,273.4844 116.2813,273.3438 115.9844,273.3438 C115.6875,273.3438 115.4844,273.4375 115.2656,273.75 L115.0938,273.6719 Z " fill="#000000"/><text fill="#000000" font-family="sans-serif" font-size="14" lengthAdjust="spacing" textLength="37" x="133.25" y="282.8467">Deck</text><line style="stroke:#181818;stroke-width:0.5;" x1="8" x2="263" y1="294" y2="294"/><ellipse cx="18" cy="305" fill="none" rx="3" ry="3" style="stroke:#038048;stroke-width:1.0;"/><text fill="#000000" font-family="sans-serif" font-size="14" lengthAdjust="spacing" textLength="155" x="27" y="310.9951">«get» count : number</text><line style="stroke:#181818;stroke-width:0.5;" x1="8" x2="263" y1="318.2969" y2="318.2969"/><ellipse cx="18" cy="329.2969" fill="#84BE84" rx="3" ry="3" style="stroke:#038048;stroke-width:1.0;"/><text fill="#000000" font-family="sans-serif" font-size="14" lengthAdjust="spacing" textLength="94" x="27" y="335.292">constructor()</text><ellipse cx="18" cy="345.5938" fill="#84BE84" rx="3" ry="3" style="stroke:#038048;stroke-width:1.0;"/><text fill="#000000" font-family="sans-serif" font-size="14" lengthAdjust="spacing" textLength="231" x="27" y="351.5889">add(playingCards: PlayingCard[])</text><ellipse cx="18" cy="361.8906" fill="#84BE84" rx="3" ry="3" style="stroke:#038048;stroke-width:1.0;"/><text fill="#000000" font-family="sans-serif" font-size="14" lengthAdjust="spacing" textLength="137" x="27" y="367.8857">deal() : PlayingCard</text><ellipse cx="18" cy="378.1875" fill="#84BE84" rx="3" ry="3" style="stroke:#038048;stroke-width:1.0;"/><text fill="#000000" font-family="sans-serif" font-size="14" lengthAdjust="spacing" textLength="59" x="27" y="384.1826">shuffle()</text></g><!--MD5=[015579201aeb56fae2e96ff8a3148310]
class PlayingCard--><g id="elem_PlayingCard"><rect codeLine="38" fill="#F1F1F1" height="170.3438" id="PlayingCard" rx="2.5" ry="2.5" style="stroke:#181818;stroke-width:0.5;" width="302" x="183.5" y="517"/><ellipse cx="288.25" cy="537.1328" fill="#ADD1B2" rx="11" ry="11" style="stroke:#181818;stroke-width:1.0;"/><path d="M290.5938,532.8047 C289.6563,532.3672 289.0625,532.2266 288.1875,532.2266 C285.5625,532.2266 283.5625,534.3047 283.5625,537.0234 L283.5625,538.1484 C283.5625,540.7266 285.6719,542.6172 288.5625,542.6172 C289.7813,542.6172 290.9375,542.3203 291.6875,541.7734 C292.2656,541.3672 292.5938,540.9141 292.5938,540.5234 C292.5938,540.0703 292.2031,539.6797 291.7344,539.6797 C291.5156,539.6797 291.3125,539.7578 291.125,539.9453 C290.6719,540.4297 290.6719,540.4297 290.4844,540.5234 C290.0625,540.7891 289.375,540.9141 288.6094,540.9141 C286.5625,540.9141 285.2656,539.8203 285.2656,538.1172 L285.2656,537.0234 C285.2656,535.2422 286.5156,533.9297 288.25,533.9297 C288.8281,533.9297 289.4375,534.0859 289.9063,534.3359 C290.3906,534.6172 290.5625,534.8359 290.6563,535.2422 C290.7188,535.6484 290.75,535.7734 290.8906,535.8984 C291.0313,536.0391 291.2656,536.1484 291.4844,536.1484 C291.75,536.1484 292.0156,536.0078 292.1875,535.7891 C292.2969,535.6328 292.3281,535.4453 292.3281,535.0234 L292.3281,533.6016 C292.3281,533.1641 292.3125,533.0391 292.2188,532.8828 C292.0625,532.6172 291.7813,532.4766 291.4844,532.4766 C291.1875,532.4766 290.9844,532.5703 290.7656,532.8828 L290.5938,532.8047 Z " fill="#000000"/><text fill="#000000" font-family="sans-serif" font-size="12" font-style="italic" lengthAdjust="spacing" textLength="79" x="311.25" y="533.1387">«immutable»</text><text fill="#000000" font-family="sans-serif" font-size="14" lengthAdjust="spacing" textLength="84" x="308.75" y="548.9639">PlayingCard</text><line style="stroke:#181818;stroke-width:0.5;" x1="184.5" x2="484.5" y1="557.2656" y2="557.2656"/><ellipse cx="194.5" cy="568.2656" fill="none" rx="3" ry="3" style="stroke:#038048;stroke-width:1.0;"/><text fill="#000000" font-family="sans-serif" font-size="14" lengthAdjust="spacing" text-decoration="underline" textLength="118" x="203.5" y="574.2607">ranks : number[]</text><ellipse cx="194.5" cy="584.5625" fill="none" rx="3" ry="3" style="stroke:#038048;stroke-width:1.0;"/><text fill="#000000" font-family="sans-serif" font-size="14" lengthAdjust="spacing" text-decoration="underline" textLength="98" x="203.5" y="590.5576">suits : string[]</text><ellipse cx="194.5" cy="600.8594" fill="none" rx="3" ry="3" style="stroke:#038048;stroke-width:1.0;"/><text fill="#000000" font-family="sans-serif" font-size="14" lengthAdjust="spacing" textLength="101" x="203.5" y="606.8545">rank : number</text><ellipse cx="194.5" cy="617.1563" fill="none" rx="3" ry="3" style="stroke:#038048;stroke-width:1.0;"/><text fill="#000000" font-family="sans-serif" font-size="14" lengthAdjust="spacing" textLength="81" x="203.5" y="623.1514">suit : string</text><line style="stroke:#181818;stroke-width:0.5;" x1="184.5" x2="484.5" y1="630.4531" y2="630.4531"/><ellipse cx="194.5" cy="641.4531" fill="#84BE84" rx="3" ry="3" style="stroke:#038048;stroke-width:1.0;"/><text fill="#000000" font-family="sans-serif" font-size="14" lengthAdjust="spacing" textLength="276" x="203.5" y="647.4482">constructor(rank: number, suit: string)</text><ellipse cx="194.5" cy="657.75" fill="#84BE84" rx="3" ry="3" style="stroke:#038048;stroke-width:1.0;"/><text fill="#000000" font-family="sans-serif" font-size="14" lengthAdjust="spacing" textLength="125" x="203.5" y="663.7451">toString() : string</text><ellipse cx="194.5" cy="674.0469" fill="#84BE84" rx="3" ry="3" style="stroke:#038048;stroke-width:1.0;"/><text fill="#000000" font-family="sans-serif" font-size="14" lengthAdjust="spacing" textLength="133" x="203.5" y="680.042">valueOf() : number</text></g><!--MD5=[2cb47ba637a0d19583e6199456f6ad0b]
class Player--><g id="elem_Player"><rect codeLine="24" fill="#F1F1F1" height="227.2656" id="Player" rx="2.5" ry="2.5" style="stroke:#181818;stroke-width:0.5;" width="429" x="452" y="213"/><ellipse cx="640.25" cy="229" fill="#ADD1B2" rx="11" ry="11" style="stroke:#181818;stroke-width:1.0;"/><path d="M642.5938,224.6719 C641.6563,224.2344 641.0625,224.0938 640.1875,224.0938 C637.5625,224.0938 635.5625,226.1719 635.5625,228.8906 L635.5625,230.0156 C635.5625,232.5938 637.6719,234.4844 640.5625,234.4844 C641.7813,234.4844 642.9375,234.1875 643.6875,233.6406 C644.2656,233.2344 644.5938,232.7813 644.5938,232.3906 C644.5938,231.9375 644.2031,231.5469 643.7344,231.5469 C643.5156,231.5469 643.3125,231.625 643.125,231.8125 C642.6719,232.2969 642.6719,232.2969 642.4844,232.3906 C642.0625,232.6563 641.375,232.7813 640.6094,232.7813 C638.5625,232.7813 637.2656,231.6875 637.2656,229.9844 L637.2656,228.8906 C637.2656,227.1094 638.5156,225.7969 640.25,225.7969 C640.8281,225.7969 641.4375,225.9531 641.9063,226.2031 C642.3906,226.4844 642.5625,226.7031 642.6563,227.1094 C642.7188,227.5156 642.75,227.6406 642.8906,227.7656 C643.0313,227.9063 643.2656,228.0156 643.4844,228.0156 C643.75,228.0156 644.0156,227.875 644.1875,227.6563 C644.2969,227.5 644.3281,227.3125 644.3281,226.8906 L644.3281,225.4688 C644.3281,225.0313 644.3125,224.9063 644.2188,224.75 C644.0625,224.4844 643.7813,224.3438 643.4844,224.3438 C643.1875,224.3438 642.9844,224.4375 642.7656,224.75 L642.5938,224.6719 Z " fill="#000000"/><text fill="#000000" font-family="sans-serif" font-size="14" lengthAdjust="spacing" textLength="44" x="660.75" y="233.8467">Player</text><line style="stroke:#181818;stroke-width:0.5;" x1="453" x2="880" y1="245" y2="245"/><rect fill="none" height="6" style="stroke:#C82930;stroke-width:1.0;" width="6" x="460" y="253"/><text fill="#000000" font-family="sans-serif" font-size="14" lengthAdjust="spacing" textLength="125" x="472" y="261.9951">nickname : string</text><rect fill="none" height="6" style="stroke:#C82930;stroke-width:1.0;" width="6" x="460" y="269.2969"/><text fill="#000000" font-family="sans-serif" font-size="14" lengthAdjust="spacing" textLength="148" x="472" y="278.292">standValue : number</text><ellipse cx="463" cy="288.5938" fill="none" rx="3" ry="3" style="stroke:#038048;stroke-width:1.0;"/><text fill="#000000" font-family="sans-serif" font-size="14" lengthAdjust="spacing" textLength="162" x="472" y="294.5889">«get» canHit : boolean</text><ellipse cx="463" cy="304.8906" fill="none" rx="3" ry="3" style="stroke:#038048;stroke-width:1.0;"/><text fill="#000000" font-family="sans-serif" font-size="14" lengthAdjust="spacing" textLength="177" x="472" y="310.8857">«get» isBusted : boolean</text><ellipse cx="463" cy="321.1875" fill="none" rx="3" ry="3" style="stroke:#038048;stroke-width:1.0;"/><text fill="#000000" font-family="sans-serif" font-size="14" lengthAdjust="spacing" textLength="229" x="472" y="327.1826">«get» isNaturalWinner : boolean</text><ellipse cx="463" cy="337.4844" fill="none" rx="3" ry="3" style="stroke:#038048;stroke-width:1.0;"/><text fill="#000000" font-family="sans-serif" font-size="14" lengthAdjust="spacing" textLength="170" x="472" y="343.4795">«get» nickname : string</text><line style="stroke:#181818;stroke-width:0.5;" x1="453" x2="880" y1="350.7813" y2="350.7813"/><ellipse cx="463" cy="361.7813" fill="#84BE84" rx="3" ry="3" style="stroke:#038048;stroke-width:1.0;"/><text fill="#000000" font-family="sans-serif" font-size="14" lengthAdjust="spacing" textLength="403" x="472" y="367.7764">constructor(nickname: string, standValue: number = 14)</text><ellipse cx="463" cy="378.0781" fill="#84BE84" rx="3" ry="3" style="stroke:#038048;stroke-width:1.0;"/><text fill="#000000" font-family="sans-serif" font-size="14" lengthAdjust="spacing" textLength="272" x="472" y="384.0732">addToHand(playingCard : PlayingCard)</text><ellipse cx="463" cy="394.375" fill="#84BE84" rx="3" ry="3" style="stroke:#038048;stroke-width:1.0;"/><text fill="#000000" font-family="sans-serif" font-size="14" lengthAdjust="spacing" textLength="204" x="472" y="400.3701">discardHand() : PlayingCard[]</text><ellipse cx="463" cy="410.6719" fill="#84BE84" rx="3" ry="3" style="stroke:#038048;stroke-width:1.0;"/><text fill="#000000" font-family="sans-serif" font-size="14" lengthAdjust="spacing" textLength="125" x="472" y="416.667">toString() : string</text><ellipse cx="463" cy="426.9688" fill="#84BE84" rx="3" ry="3" style="stroke:#038048;stroke-width:1.0;"/><text fill="#000000" font-family="sans-serif" font-size="14" lengthAdjust="spacing" textLength="133" x="472" y="432.9639">valueOf() : number</text></g><!--MD5=[5be6ca478e7a76e306586868ec6b7476]
link CardTable to Deck--><g id="link_CardTable_Deck"><path codeLine="1" d="M298.161,136.025 C286.477,145.652 274.939,155.79 264.5,166 C235.986,193.888 207.732,227.901 184.968,257.343 " fill="none" id="CardTable-to-Deck" style="stroke:#181818;stroke-width:1.0;"/><polygon fill="#181818" points="181.649,261.652,190.3089,256.961,184.6993,257.6902,183.9701,252.0806,181.649,261.652" style="stroke:#181818;stroke-width:1.0;"/><rect fill="none" height="6" style="stroke:#C82930;stroke-width:1.0;" width="6" x="267.5" y="172.0664"/><text fill="#000000" font-family="sans-serif" font-size="13" lengthAdjust="spacing" textLength="30" x="277.5" y="179.0669">deck</text><text fill="#000000" font-family="sans-serif" font-size="13" lengthAdjust="spacing" textLength="8" x="279.5999" y="156.3995">1</text><text fill="#000000" font-family="sans-serif" font-size="13" lengthAdjust="spacing" textLength="8" x="178.259" y="250.7866">1</text></g><!--MD5=[f38ed6aede02af41495ba72f9050ea40]
link CardTable to PlayingCard--><g id="link_CardTable_PlayingCard"><path codeLine="2" d="M367.96,136.029 C362.043,159.972 356.046,187.563 352.5,213 C338.309,314.787 334.635,432.894 333.986,511.814 " fill="none" id="CardTable-to-PlayingCard" style="stroke:#181818;stroke-width:1.0;"/><polygon fill="#181818" points="333.947,516.955,338.0137,507.985,333.9841,511.9551,330.014,507.9255,333.947,516.955" style="stroke:#181818;stroke-width:1.0;"/><rect fill="none" height="6" style="stroke:#C82930;stroke-width:1.0;" width="6" x="355.5" y="324.0664"/><text fill="#000000" font-family="sans-serif" font-size="13" lengthAdjust="spacing" textLength="68" x="365.5" y="331.0669">discardPile</text><text fill="#000000" font-family="sans-serif" font-size="13" lengthAdjust="spacing" textLength="8" x="357.4694" y="156.4039">1</text><text fill="#000000" font-family="sans-serif" font-size="13" lengthAdjust="spacing" textLength="32" x="300.5245" y="506.0597">0..51</text></g><!--MD5=[23712d3ac6bfbd8342481e442b81976e]
link CardTable to Player--><g id="link_CardTable_Player"><path codeLine="3" d="M456.045,136.016 C480.862,158.359 509.587,184.223 537.685,209.521 " fill="none" id="CardTable-to-Player" style="stroke:#181818;stroke-width:1.0;"/><polygon fill="#181818" points="541.465,212.924,537.4514,203.9301,537.7486,209.5791,532.0996,209.8763,541.465,212.924" style="stroke:#181818;stroke-width:1.0;"/><rect fill="none" height="6" style="stroke:#C82930;stroke-width:1.0;" width="6" x="504.5" y="172.0664"/><text fill="#000000" font-family="sans-serif" font-size="13" lengthAdjust="spacing" textLength="40" x="514.5" y="179.0669">dealer</text><text fill="#000000" font-family="sans-serif" font-size="13" lengthAdjust="spacing" textLength="8" x="455.7393" y="156.3894">1</text><text fill="#000000" font-family="sans-serif" font-size="13" lengthAdjust="spacing" textLength="8" x="524.7955" y="201.8516">1</text></g><!--MD5=[23712d3ac6bfbd8342481e442b81976e]
link CardTable to Player--><g id="link_CardTable_Player"><path codeLine="4" d="M524.398,136.158 C538.308,145.207 551.648,155.167 563.5,166 C577.177,178.502 589.814,193.204 601.208,208.538 " fill="none" id="CardTable-to-Player-1" style="stroke:#181818;stroke-width:1.0;"/><polygon fill="#181818" points="604.389,212.878,602.2972,203.2538,601.4342,208.8445,595.8436,207.9815,604.389,212.878" style="stroke:#181818;stroke-width:1.0;"/><rect fill="none" height="6" style="stroke:#C82930;stroke-width:1.0;" width="6" x="581.5" y="172.0664"/><text fill="#000000" font-family="sans-serif" font-size="13" lengthAdjust="spacing" textLength="47" x="591.5" y="179.0669">players</text><text fill="#000000" font-family="sans-serif" font-size="13" lengthAdjust="spacing" textLength="8" x="531.9956" y="156.5478">1</text><text fill="#000000" font-family="sans-serif" font-size="13" lengthAdjust="spacing" textLength="24" x="575.4097" y="201.8025">1..7</text></g><!--MD5=[f9f73ec8cebd5d25207bf54fbae12f36]
link Deck to PlayingCard--><g id="link_Deck_PlayingCard"><path codeLine="5" d="M159.252,391.155 C172.236,421.673 190.059,457.839 211.5,487 C217.948,495.769 225.135,504.408 232.709,512.768 " fill="none" id="Deck-to-PlayingCard" style="stroke:#181818;stroke-width:1.0;"/><polygon fill="#181818" points="236.456,516.848,233.3156,507.5132,233.0744,513.165,227.4227,512.9238,236.456,516.848" style="stroke:#181818;stroke-width:1.0;"/><rect fill="none" height="6" style="stroke:#C82930;stroke-width:1.0;" width="6" x="214.5" y="476.0664"/><text fill="#000000" font-family="sans-serif" font-size="13" lengthAdjust="spacing" textLength="83" x="224.5" y="483.0669">playingCards</text><text fill="#000000" font-family="sans-serif" font-size="13" lengthAdjust="spacing" textLength="8" x="153.5358" y="411.5445">1</text><text fill="#000000" font-family="sans-serif" font-size="13" lengthAdjust="spacing" textLength="32" x="194.6553" y="505.9435">1..52</text></g><!--MD5=[1c6ca1aa9dc662a7d387003acbbfe555]
link Player to PlayingCard--><g id="link_Player_PlayingCard"><path codeLine="6" d="M529.546,440.322 C499.923,464.725 469.027,490.178 440.789,513.439 " fill="none" id="Player-to-PlayingCard" style="stroke:#181818;stroke-width:1.0;"/><polygon fill="#181818" points="436.643,516.855,446.1327,514.2196,440.5021,513.6758,441.0459,508.0451,436.643,516.855" style="stroke:#181818;stroke-width:1.0;"/><rect fill="none" height="6" style="stroke:#C82930;stroke-width:1.0;" width="6" x="494.5" y="476.0664"/><text fill="#000000" font-family="sans-serif" font-size="13" lengthAdjust="spacing" textLength="32" x="504.5" y="483.0669">hand</text><text fill="#000000" font-family="sans-serif" font-size="13" lengthAdjust="spacing" textLength="8" x="512.5161" y="460.1568">1</text><text fill="#000000" font-family="sans-serif" font-size="13" lengthAdjust="spacing" textLength="24" x="420.3897" y="505.9512">0..5</text></g><!--MD5=[5674b6d48470ede03bbdcd38dd88f34b]
@startuml
CardTable "1" - -> "1" Deck : -deck
  CardTable "1" - -> "0..51" PlayingCard : -discardPile
  CardTable "1" - -> "1" Player : -dealer
  CardTable "1" - -> "1..7" Player : -players
  Deck "1" - -> "1..52" PlayingCard : -playingCards
  Player "1" - -> "0..5" PlayingCard : -hand

  class CardTable{
    +constructor(numberOfPlayers: number)
    -compareHands(dealer: Player, player: Player) : Player
    -deal() : PlayingCard
    -playOut(dealer: Player, player: Player)
    +playRounds(numberOfRounds : number)
  }

  class Deck{
    +«get» count : number
    +constructor()
    +add(playingCards: PlayingCard[])
    +deal() : PlayingCard
    +shuffle()
  }

  class Player{
      -nickname : string
      -standValue : number
      +«get» canHit : boolean
      +«get» isBusted : boolean
      +«get» isNaturalWinner : boolean
      +«get» nickname : string
      +constructor(nickname: string, standValue: number = 14)
      +addToHand(playingCard : PlayingCard)
      +discardHand() : PlayingCard[]
      +toString() : string
      +valueOf() : number
  }

  class PlayingCard<<immutable>>{
      +{static} ranks : number[]
      +{static} suits : string[]
      +rank : number
      +suit : string
      +constructor(rank: number, suit: string)
      +toString() : string
      +valueOf() : number
  }
@enduml

PlantUML version 1.2022.6beta5(Unknown compile time)
(GPL source distribution)
Java Runtime: Java(TM) SE Runtime Environment
JVM: Java HotSpot(TM) 64-Bit Server VM
Default Encoding: UTF-8
Language: en
Country: US
--></g></svg>