<?xml version="1.0" encoding="UTF-8" standalone="no"?><svg xmlns="http://www.w3.org/2000/svg" xmlns:xlink="http://www.w3.org/1999/xlink" contentStyleType="text/css" height="166px" preserveAspectRatio="none" style="width:278px;height:166px;background:#FFFFFF;" version="1.1" viewBox="0 0 278 166" width="278px" zoomAndPan="magnify"><defs/><g><!--MD5=[30299a58ba6b78debaaed5ddbb42f29a]
class Deck--><g id="elem_Deck"><rect codeLine="1" fill="#F1F1F1" height="145.7813" id="Deck" rx="2.5" ry="2.5" style="stroke:#181818;stroke-width:0.5;" width="257" x="7" y="7"/><ellipse cx="112.75" cy="23" fill="#ADD1B2" rx="11" ry="11" style="stroke:#181818;stroke-width:1.0;"/><path d="M115.0938,18.6719 C114.1563,18.2344 113.5625,18.0938 112.6875,18.0938 C110.0625,18.0938 108.0625,20.1719 108.0625,22.8906 L108.0625,24.0156 C108.0625,26.5938 110.1719,28.4844 113.0625,28.4844 C114.2813,28.4844 115.4375,28.1875 116.1875,27.6406 C116.7656,27.2344 117.0938,26.7813 117.0938,26.3906 C117.0938,25.9375 116.7031,25.5469 116.2344,25.5469 C116.0156,25.5469 115.8125,25.625 115.625,25.8125 C115.1719,26.2969 115.1719,26.2969 114.9844,26.3906 C114.5625,26.6563 113.875,26.7813 113.1094,26.7813 C111.0625,26.7813 109.7656,25.6875 109.7656,23.9844 L109.7656,22.8906 C109.7656,21.1094 111.0156,19.7969 112.75,19.7969 C113.3281,19.7969 113.9375,19.9531 114.4063,20.2031 C114.8906,20.4844 115.0625,20.7031 115.1563,21.1094 C115.2188,21.5156 115.25,21.6406 115.3906,21.7656 C115.5313,21.9063 115.7656,22.0156 115.9844,22.0156 C116.25,22.0156 116.5156,21.875 116.6875,21.6563 C116.7969,21.5 116.8281,21.3125 116.8281,20.8906 L116.8281,19.4688 C116.8281,19.0313 116.8125,18.9063 116.7188,18.75 C116.5625,18.4844 116.2813,18.3438 115.9844,18.3438 C115.6875,18.3438 115.4844,18.4375 115.2656,18.75 L115.0938,18.6719 Z " fill="#000000"/><text fill="#000000" font-family="sans-serif" font-size="14" lengthAdjust="spacing" textLength="37" x="133.25" y="27.8467">Deck</text><line style="stroke:#181818;stroke-width:0.5;" x1="8" x2="263" y1="39" y2="39"/><rect fill="none" height="6" style="stroke:#C82930;stroke-width:1.0;" width="6" x="15" y="47"/><text fill="#000000" font-family="sans-serif" font-size="14" lengthAdjust="spacing" textLength="199" x="27" y="55.9951">playingCards : PlayingCard[]</text><ellipse cx="18" cy="66.2969" fill="none" rx="3" ry="3" style="stroke:#038048;stroke-width:1.0;"/><text fill="#000000" font-family="sans-serif" font-size="14" lengthAdjust="spacing" textLength="155" x="27" y="72.292">«get» count : number</text><line style="stroke:#181818;stroke-width:0.5;" x1="8" x2="263" y1="79.5938" y2="79.5938"/><ellipse cx="18" cy="90.5938" fill="#84BE84" rx="3" ry="3" style="stroke:#038048;stroke-width:1.0;"/><text fill="#000000" font-family="sans-serif" font-size="14" lengthAdjust="spacing" textLength="94" x="27" y="96.5889">constructor()</text><ellipse cx="18" cy="106.8906" fill="#84BE84" rx="3" ry="3" style="stroke:#038048;stroke-width:1.0;"/><text fill="#000000" font-family="sans-serif" font-size="14" lengthAdjust="spacing" textLength="231" x="27" y="112.8857">add(playingCards: PlayingCard[])</text><ellipse cx="18" cy="123.1875" fill="#84BE84" rx="3" ry="3" style="stroke:#038048;stroke-width:1.0;"/><text fill="#000000" font-family="sans-serif" font-size="14" lengthAdjust="spacing" textLength="137" x="27" y="129.1826">deal() : PlayingCard</text><ellipse cx="18" cy="139.4844" fill="#84BE84" rx="3" ry="3" style="stroke:#038048;stroke-width:1.0;"/><text fill="#000000" font-family="sans-serif" font-size="14" lengthAdjust="spacing" textLength="59" x="27" y="145.4795">shuffle()</text></g><!--MD5=[edd0c1f8304717d81c92a45bf8ba9938]
@startuml
class Deck{
    -playingCards : PlayingCard[]
    +«get» count : number
    +constructor()
    +add(playingCards: PlayingCard[])
    +deal() : PlayingCard
    +shuffle()
  }
@enduml

PlantUML version 1.2022.6beta5(Unknown compile time)
(GPL source distribution)
Java Runtime: Java(TM) SE Runtime Environment
JVM: Java HotSpot(TM) 64-Bit Server VM
Default Encoding: UTF-8
Language: en
Country: US
--></g></svg>