<?xml version="1.0" encoding="UTF-8" standalone="no"?>
<!DOCTYPE svg PUBLIC "-//W3C//DTD SVG 1.1//EN"
 "http://www.w3.org/Graphics/SVG/1.1/DTD/svg11.dtd">
<!-- Generated by graphviz version 2.38.0 (20140413.2041)
 -->
<!-- Title: dependency&#45;cruiser output Pages: 1 -->
<svg width="334pt" height="120pt"
 viewBox="0.00 0.00 334.00 120.00" xmlns="http://www.w3.org/2000/svg" xmlns:xlink="http://www.w3.org/1999/xlink">
<g id="graph0" class="graph" transform="scale(1 1) rotate(0) translate(4 116)">
<title>dependency&#45;cruiser output</title>
<g id="clust1" class="cluster"><title>cluster_src</title>
<path fill="#ffffff" stroke="black" stroke-width="2" d="M20,-8C20,-8 306,-8 306,-8 312,-8 318,-14 318,-20 318,-20 318,-92 318,-92 318,-98 312,-104 306,-104 306,-104 20,-104 20,-104 14,-104 8,-98 8,-92 8,-92 8,-20 8,-20 8,-14 14,-8 20,-8"/>
<text text-anchor="middle" x="163" y="-92.8" font-family="Helvetica,sans-Serif" font-weight="bold" font-size="9.00">src</text>
</g>
<!-- src/CardTable.js -->
<g id="node1" class="node"><title>src/CardTable.js</title>
<g id="a_node1"><a xlink:href="src/CardTable.js" xlink:title="CardTable.js">
<path fill="#ffffcc" stroke="black" d="M147,-64C147,-64 89,-64 89,-64 86,-64 83,-61 83,-58 83,-58 83,-52 83,-52 83,-49 86,-46 89,-46 89,-46 147,-46 147,-46 150,-46 153,-49 153,-52 153,-52 153,-58 153,-58 153,-61 150,-64 147,-64"/>
<text text-anchor="middle" x="118" y="-52.8" font-family="Helvetica,sans-Serif" font-size="9.00">CardTable.js</text>
</a>
</g>
</g>
<!-- src/Deck.js -->
<g id="node2" class="node"><title>src/Deck.js</title>
<g id="a_node2"><a xlink:href="src/Deck.js" xlink:title="Deck.js">
<path fill="#ffffcc" stroke="black" d="M214,-34C214,-34 172,-34 172,-34 169,-34 166,-31 166,-28 166,-28 166,-22 166,-22 166,-19 169,-16 172,-16 172,-16 214,-16 214,-16 217,-16 220,-19 220,-22 220,-22 220,-28 220,-28 220,-31 217,-34 214,-34"/>
<text text-anchor="middle" x="193" y="-22.8" font-family="Helvetica,sans-Serif" font-size="9.00">Deck.js</text>
</a>
</g>
</g>
<!-- src/CardTable.js&#45;&gt;src/Deck.js -->
<g id="edge1" class="edge"><title>src/CardTable.js&#45;&gt;src/Deck.js</title>
<path fill="none" stroke="#999999" d="M140.902,-45.999C148.484,-42.8832 157.072,-39.3539 165.014,-36.0901"/>
<polygon fill="#999999" stroke="#999999" points="165.901,-37.6176 169.861,-34.0983 164.571,-34.3803 165.901,-37.6176"/>
</g>
<!-- src/Player.js -->
<g id="node3" class="node"><title>src/Player.js</title>
<g id="a_node3"><a xlink:href="src/Player.js" xlink:title="Player.js">
<path fill="#ffffcc" stroke="black" d="M214,-64C214,-64 172,-64 172,-64 169,-64 166,-61 166,-58 166,-58 166,-52 166,-52 166,-49 169,-46 172,-46 172,-46 214,-46 214,-46 217,-46 220,-49 220,-52 220,-52 220,-58 220,-58 220,-61 217,-64 214,-64"/>
<text text-anchor="middle" x="193" y="-52.8" font-family="Helvetica,sans-Serif" font-size="9.00">Player.js</text>
</a>
</g>
</g>
<!-- src/CardTable.js&#45;&gt;src/Player.js -->
<g id="edge2" class="edge"><title>src/CardTable.js&#45;&gt;src/Player.js</title>
<path fill="none" stroke="#999999" d="M153.362,-55C155.692,-55 158.034,-55 160.349,-55"/>
<polygon fill="#999999" stroke="#999999" points="160.684,-56.7501 165.684,-55 160.684,-53.2501 160.684,-56.7501"/>
</g>
<!-- src/PlayingCard.js -->
<g id="node4" class="node"><title>src/PlayingCard.js</title>
<g id="a_node4"><a xlink:href="src/PlayingCard.js" xlink:title="PlayingCard.js">
<path fill="#ffffcc" stroke="black" d="M304,-64C304,-64 239,-64 239,-64 236,-64 233,-61 233,-58 233,-58 233,-52 233,-52 233,-49 236,-46 239,-46 239,-46 304,-46 304,-46 307,-46 310,-49 310,-52 310,-52 310,-58 310,-58 310,-61 307,-64 304,-64"/>
<text text-anchor="middle" x="271.5" y="-52.8" font-family="Helvetica,sans-Serif" font-size="9.00">PlayingCard.js</text>
</a>
</g>
</g>
<!-- src/CardTable.js&#45;&gt;src/PlayingCard.js -->
<g id="edge3" class="edge"><title>src/CardTable.js&#45;&gt;src/PlayingCard.js</title>
<path fill="none" stroke="#999999" d="M142.566,-64.088C149.954,-66.5094 158.214,-68.7876 166,-70 189.714,-73.6924 196.25,-73.4527 220,-70 226.707,-69.0249 233.764,-67.3573 240.404,-65.4798"/>
<polygon fill="#999999" stroke="#999999" points="241.087,-67.103 245.389,-64.0112 240.098,-63.7457 241.087,-67.103"/>
</g>
<!-- src/Deck.js&#45;&gt;src/PlayingCard.js -->
<g id="edge4" class="edge"><title>src/Deck.js&#45;&gt;src/PlayingCard.js</title>
<path fill="none" stroke="#999999" d="M216.953,-34.001C224.898,-37.1168 233.898,-40.6461 242.22,-43.9099"/>
<polygon fill="#999999" stroke="#999999" points="242.005,-45.7054 247.299,-45.9017 243.283,-42.447 242.005,-45.7054"/>
</g>
<!-- src/Player.js&#45;&gt;src/PlayingCard.js -->
<g id="edge5" class="edge"><title>src/Player.js&#45;&gt;src/PlayingCard.js</title>
<path fill="none" stroke="#999999" d="M220.327,-55C222.739,-55 225.222,-55 227.731,-55"/>
<polygon fill="#999999" stroke="#999999" points="227.903,-56.7501 232.903,-55 227.903,-53.2501 227.903,-56.7501"/>
</g>
<!-- src/app.js -->
<g id="node5" class="node"><title>src/app.js</title>
<g id="a_node5"><a xlink:href="src/app.js" xlink:title="app.js">
<path fill="#ffffcc" stroke="black" d="M64,-64C64,-64 22,-64 22,-64 19,-64 16,-61 16,-58 16,-58 16,-52 16,-52 16,-49 19,-46 22,-46 22,-46 64,-46 64,-46 67,-46 70,-49 70,-52 70,-52 70,-58 70,-58 70,-61 67,-64 64,-64"/>
<text text-anchor="middle" x="43" y="-52.8" font-family="Helvetica,sans-Serif" font-size="9.00">app.js</text>
</a>
</g>
</g>
<!-- src/app.js&#45;&gt;src/CardTable.js -->
<g id="edge6" class="edge"><title>src/app.js&#45;&gt;src/CardTable.js</title>
<path fill="none" stroke="#999999" d="M70.3547,-55C72.7795,-55 75.2693,-55 77.7763,-55"/>
<polygon fill="#999999" stroke="#999999" points="77.9312,-56.7501 82.9311,-55 77.9311,-53.2501 77.9312,-56.7501"/>
</g>
</g>
</svg>
