<?xml version="1.0" encoding="UTF-8" standalone="no"?><svg xmlns="http://www.w3.org/2000/svg" xmlns:xlink="http://www.w3.org/1999/xlink" contentStyleType="text/css" height="191px" preserveAspectRatio="none" style="width:323px;height:191px;background:#FFFFFF;" version="1.1" viewBox="0 0 323 191" width="323px" zoomAndPan="magnify"><defs/><g><!--MD5=[015579201aeb56fae2e96ff8a3148310]
class PlayingCard--><g id="elem_PlayingCard"><rect codeLine="1" fill="#F1F1F1" height="170.3438" id="PlayingCard" rx="2.5" ry="2.5" style="stroke:#181818;stroke-width:0.5;" width="302" x="7" y="7"/><ellipse cx="111.75" cy="27.1328" fill="#ADD1B2" rx="11" ry="11" style="stroke:#181818;stroke-width:1.0;"/><path d="M114.0938,22.8047 C113.1563,22.3672 112.5625,22.2266 111.6875,22.2266 C109.0625,22.2266 107.0625,24.3047 107.0625,27.0234 L107.0625,28.1484 C107.0625,30.7266 109.1719,32.6172 112.0625,32.6172 C113.2813,32.6172 114.4375,32.3203 115.1875,31.7734 C115.7656,31.3672 116.0938,30.9141 116.0938,30.5234 C116.0938,30.0703 115.7031,29.6797 115.2344,29.6797 C115.0156,29.6797 114.8125,29.7578 114.625,29.9453 C114.1719,30.4297 114.1719,30.4297 113.9844,30.5234 C113.5625,30.7891 112.875,30.9141 112.1094,30.9141 C110.0625,30.9141 108.7656,29.8203 108.7656,28.1172 L108.7656,27.0234 C108.7656,25.2422 110.0156,23.9297 111.75,23.9297 C112.3281,23.9297 112.9375,24.0859 113.4063,24.3359 C113.8906,24.6172 114.0625,24.8359 114.1563,25.2422 C114.2188,25.6484 114.25,25.7734 114.3906,25.8984 C114.5313,26.0391 114.7656,26.1484 114.9844,26.1484 C115.25,26.1484 115.5156,26.0078 115.6875,25.7891 C115.7969,25.6328 115.8281,25.4453 115.8281,25.0234 L115.8281,23.6016 C115.8281,23.1641 115.8125,23.0391 115.7188,22.8828 C115.5625,22.6172 115.2813,22.4766 114.9844,22.4766 C114.6875,22.4766 114.4844,22.5703 114.2656,22.8828 L114.0938,22.8047 Z " fill="#000000"/><text fill="#000000" font-family="sans-serif" font-size="12" font-style="italic" lengthAdjust="spacing" textLength="79" x="134.75" y="23.1387">«immutable»</text><text fill="#000000" font-family="sans-serif" font-size="14" lengthAdjust="spacing" textLength="84" x="132.25" y="38.9639">PlayingCard</text><line style="stroke:#181818;stroke-width:0.5;" x1="8" x2="308" y1="47.2656" y2="47.2656"/><ellipse cx="18" cy="58.2656" fill="none" rx="3" ry="3" style="stroke:#038048;stroke-width:1.0;"/><text fill="#000000" font-family="sans-serif" font-size="14" lengthAdjust="spacing" text-decoration="underline" textLength="118" x="27" y="64.2607">ranks : number[]</text><ellipse cx="18" cy="74.5625" fill="none" rx="3" ry="3" style="stroke:#038048;stroke-width:1.0;"/><text fill="#000000" font-family="sans-serif" font-size="14" lengthAdjust="spacing" text-decoration="underline" textLength="98" x="27" y="80.5576">suits : string[]</text><ellipse cx="18" cy="90.8594" fill="none" rx="3" ry="3" style="stroke:#038048;stroke-width:1.0;"/><text fill="#000000" font-family="sans-serif" font-size="14" lengthAdjust="spacing" textLength="101" x="27" y="96.8545">rank : number</text><ellipse cx="18" cy="107.1563" fill="none" rx="3" ry="3" style="stroke:#038048;stroke-width:1.0;"/><text fill="#000000" font-family="sans-serif" font-size="14" lengthAdjust="spacing" textLength="81" x="27" y="113.1514">suit : string</text><line style="stroke:#181818;stroke-width:0.5;" x1="8" x2="308" y1="120.4531" y2="120.4531"/><ellipse cx="18" cy="131.4531" fill="#84BE84" rx="3" ry="3" style="stroke:#038048;stroke-width:1.0;"/><text fill="#000000" font-family="sans-serif" font-size="14" lengthAdjust="spacing" textLength="276" x="27" y="137.4482">constructor(rank: number, suit: string)</text><ellipse cx="18" cy="147.75" fill="#84BE84" rx="3" ry="3" style="stroke:#038048;stroke-width:1.0;"/><text fill="#000000" font-family="sans-serif" font-size="14" lengthAdjust="spacing" textLength="125" x="27" y="153.7451">toString() : string</text><ellipse cx="18" cy="164.0469" fill="#84BE84" rx="3" ry="3" style="stroke:#038048;stroke-width:1.0;"/><text fill="#000000" font-family="sans-serif" font-size="14" lengthAdjust="spacing" textLength="133" x="27" y="170.042">valueOf() : number</text></g><!--MD5=[102b6d2372102b421a304d852d1162a4]
@startuml
class PlayingCard<<immutable>>{
      +{static} ranks : number[]
      +{static} suits : string[]
      +rank : number
      +suit : string
      +constructor(rank: number, suit: string)
      +toString() : string
      +valueOf() : number
  }
@enduml

PlantUML version 1.2022.6beta4(Unknown compile time)
(GPL source distribution)
Java Runtime: Java(TM) SE Runtime Environment
JVM: Java HotSpot(TM) 64-Bit Server VM
Default Encoding: UTF-8
Language: en
Country: US
--></g></svg>